<?xml version="1.0" standalone="no"?>
<!DOCTYPE svg PUBLIC "-//W3C//DTD SVG 1.1//EN" "http://www.w3.org/Graphics/SVG/1.1/DTD/svg11.dtd" >
<svg xmlns="http://www.w3.org/2000/svg">
<metadata></metadata>
<defs>
<font id="teletex_mediumregular" horiz-adv-x="489" >
<font-face units-per-em="1000" ascent="750" descent="-250" />
<missing-glyph horiz-adv-x="300" />
<glyph unicode=" "  horiz-adv-x="300" />
<glyph unicode="&#x09;" horiz-adv-x="300" />
<glyph unicode="&#xa0;" horiz-adv-x="300" />
<glyph unicode="!" horiz-adv-x="171" d="M54 701h63v-582h-63v582zM50 36q0 36 35 36q17 0 26.5 -10t9.5 -26t-9.5 -26t-26.5 -10q-35 0 -35 36z" />
<glyph unicode="&#x22;" horiz-adv-x="244" d="M50 701h63v-227h-63v227zM131 701h63v-227h-63v227z" />
<glyph unicode="#" horiz-adv-x="549" d="M360 583h65l-31 -144h105v-62h-118q-3 -17 -13.5 -64t-19.5 -90h151v-64h-164q-7 -28 -34 -159h-65l33 159h-52q-7 -30 -19.5 -92.5t-13.5 -66.5h-64l33 159h-103v64h115l34 154h-149v62h161q20 88 30 144h65l-30 -144h51zM263 377l-31 -154h50l34 154h-53z" />
<glyph unicode="$" horiz-adv-x="458" d="M197 705h64v-48q26 -7 52 -18v17h63v-181h-63v84q-20 21 -52 32v-239q1 -1 6.5 -3.5t7.5 -4.5l23 -12q110 -62 110 -156q0 -69 -41 -118t-106 -57v-45h-64v45q-48 10 -83 37v-37h-64v183h61q6 -47 29.5 -78.5t56.5 -39.5v248l-56 34q-91 56 -91 144q0 70 42.5 115.5 t104.5 52.5v45zM345 176q0 53 -79 100l-5 3v-212q37 10 60.5 40t23.5 69zM114 492q0 -52 57 -88l12 -6q13 -7 14 -8v204q-35 -8 -59 -35.5t-24 -66.5z" />
<glyph unicode="%" horiz-adv-x="657" d="M493 661h76l-402 -661h-75zM50 505q0 65 43 110.5t106 45.5q60 0 104 -45.5t44 -110.5t-44 -110.5t-104 -45.5q-63 0 -106 45.5t-43 110.5zM114 505q0 -38 25 -65t60 -27t59.5 27t24.5 65t-24.5 65.5t-59.5 27.5t-60 -27.5t-25 -65.5zM310 155q0 66 43 111.5t106 45.5 q61 0 104.5 -46t43.5 -111q0 -64 -44 -109.5t-104 -45.5q-63 0 -106 45t-43 110zM373 155q0 -38 25 -64.5t61 -26.5q35 0 60 26.5t25 64.5q0 39 -25 66.5t-60 27.5q-36 0 -61 -27.5t-25 -66.5z" />
<glyph unicode="&#x26;" horiz-adv-x="572" d="M522 64v-64h-129l-29 46q-54 -46 -119 -46q-83 0 -139 56t-56 139q0 55 27 102t71 72l16 9l6 1l-36 64q-22 37 -22 73q0 60 43 102.5t102 42.5q61 0 103 -42t42 -103q0 -36 -22.5 -69t-55.5 -51l-66 -39l107 -184q4 21 4 55h153v-63h-92q-7 -37 -21 -65l21 -36h92z M113 195q0 -55 38.5 -93t93.5 -38q53 0 87 40q-27 47 -132 221l-21 -12q-31 -17 -48.5 -48.5t-17.5 -69.5zM225 414l68 38q45 25 45 64q0 34 -23.5 58t-57.5 24t-58.5 -24t-24.5 -58q0 -18 18 -45z" />
<glyph unicode="'" horiz-adv-x="163" d="M50 701h63v-227h-63v227z" />
<glyph unicode="(" horiz-adv-x="345" d="M272 603l23 -59q-80 -34 -131 -121t-51 -195q0 -106 50.5 -192t131.5 -124l-21 -57q-100 45 -162 147t-62 226q0 125 61.5 227.5t160.5 147.5z" />
<glyph unicode=")" horiz-adv-x="346" d="M50 545l21 58q100 -45 162.5 -147.5t62.5 -227.5t-63 -227t-164 -147l-18 58q81 37 131.5 123.5t50.5 192.5q0 108 -51 194.5t-132 122.5z" />
<glyph unicode="*" horiz-adv-x="443" d="M321 567l44 -44l-68 -67h96v-63h-96l68 -68l-44 -45l-68 68v-95h-63v95l-67 -68l-44 45l68 68h-97v63h97l-68 67l44 44l67 -66v94h63v-95q11 11 34.5 34t33.5 33z" />
<glyph unicode="+" horiz-adv-x="476" d="M269 106h-63v157h-156v63h156v157h63v-157h157v-63h-157v-157z" />
<glyph unicode="," horiz-adv-x="188" d="M138 26q0 -15 -12 -25l-24 -24h-52l20 32q-4 8 -4 17q0 16 10 26t26 10t26 -10t10 -26z" />
<glyph unicode="-" horiz-adv-x="372" d="M50 263v63h272v-63h-272z" />
<glyph unicode="." horiz-adv-x="171" d="M50 36q0 36 35 36q17 0 26.5 -10t9.5 -26t-9.5 -26t-26.5 -10q-35 0 -35 36z" />
<glyph unicode="/" horiz-adv-x="466" d="M349 673h67l-299 -673h-67z" />
<glyph unicode="0" horiz-adv-x="598" d="M50 351q0 146 72.5 248t176.5 102t176.5 -102t72.5 -248t-72.5 -248.5t-176.5 -102.5t-176.5 102.5t-72.5 248.5zM114 351q0 -117 54.5 -200t130.5 -83q77 0 131.5 83t54.5 200t-54.5 200t-131.5 83q-76 0 -130.5 -83t-54.5 -200z" />
<glyph unicode="1" horiz-adv-x="339" d="M289 64v-64h-223v64h80v550l-54 -33l-42 43l118 76h42v-636h79z" />
<glyph unicode="2" horiz-adv-x="529" d="M206 423l-53 -27q-36 63 -36 114q0 80 52 136t128 56t129 -56t53 -136q0 -67 -48 -130q-19 -24 -69 -89t-76 -97q-89 -109 -102 -126h232v93h63v-161h-429l330 420q36 47 36 90q0 51 -35 88t-84 37q-48 0 -83 -37t-35 -88q0 -29 27 -87z" />
<glyph unicode="3" horiz-adv-x="482" d="M50 141l55 30q21 -47 56.5 -75t75.5 -28q54 0 93 41t39 98q0 59 -39 101t-94 42h-80v68h85q40 0 68.5 31.5t28.5 75.5t-30 76.5t-72 32.5q-34 0 -63 -28t-40 -71h-69q21 72 68 119t104 47q69 0 117 -50.5t48 -125.5q0 -87 -62 -139q93 -57 93 -179q0 -86 -56.5 -146.5 t-138.5 -60.5q-57 0 -107.5 38.5t-79.5 102.5z" />
<glyph unicode="4" horiz-adv-x="473" d="M423 286v-63h-88v-159h79v-64h-222v64h80v159h-222l214 478l59 -18l-179 -397h128v170h63v-170h88z" />
<glyph unicode="5" horiz-adv-x="494" d="M416 550h-62v88h-159v-217q11 2 36 2q89 0 151 -61t62 -149q0 -90 -61.5 -151.5t-151.5 -61.5q-101 0 -181 101l47 42q63 -79 134 -79q61 0 105 44t44 105t-43.5 104t-105.5 43q-26 0 -99 -26v367h284v-151z" />
<glyph unicode="6" horiz-adv-x="524" d="M390 700l48 -40l-198 -238q10 1 29 1q83 0 144 -59t61 -148q0 -90 -61.5 -153t-143.5 -63q-92 0 -155.5 62.5t-63.5 153.5q0 76 50 136zM114 216q0 -62 45.5 -107t109.5 -45q57 0 100 45t43 107t-42.5 103t-100.5 41q-65 0 -110 -40.5t-45 -103.5z" />
<glyph unicode="7" horiz-adv-x="565" d="M112 549h-62v151h465l-392 -710l-56 30l342 617h-297v-88z" />
<glyph unicode="8" horiz-adv-x="494" d="M82 524q0 75 48 125.5t117 50.5q71 0 118.5 -50.5t47.5 -125.5q0 -86 -61 -139q92 -56 92 -179q0 -86 -57.5 -146.5t-140.5 -60.5q-81 0 -138.5 60.5t-57.5 146.5q0 58 25.5 105t69.5 74q-63 53 -63 139zM113 206q0 -57 39 -98t94 -41t94.5 41t39.5 98q0 59 -39 101 t-95 42q-55 0 -94 -42t-39 -101zM146 524q0 -43 28 -74t67 -33h5q43 0 73.5 31.5t30.5 75.5t-30.5 76.5t-72.5 32.5q-41 0 -71 -32.5t-30 -76.5z" />
<glyph unicode="9" horiz-adv-x="524" d="M136 0l-48 40l198 237q-9 -1 -29 -1q-84 0 -145.5 59t-61.5 148q0 90 62 153.5t145 63.5q91 0 154 -63t63 -154q0 -74 -48 -134zM412 483q0 64 -45.5 109t-109.5 45q-58 0 -100.5 -45.5t-42.5 -108.5q0 -62 42 -102.5t101 -40.5q65 0 110 40t45 103z" />
<glyph unicode=":" horiz-adv-x="171" d="M50 36q0 36 35 36q17 0 26.5 -10t9.5 -26t-9.5 -26t-26.5 -10q-35 0 -35 36zM50 325q0 16 9.5 25.5t25.5 9.5t26 -9.5t10 -25.5q0 -17 -10 -27t-26 -10t-25.5 10t-9.5 27z" />
<glyph unicode=";" horiz-adv-x="188" d="M56 325q0 16 9.5 25.5t25.5 9.5t26 -9.5t10 -25.5q0 -17 -10 -27t-26 -10t-25.5 10t-9.5 27zM138 26q0 16 -10 26t-26 10t-26 -10t-10 -26q0 -9 4 -17l-20 -32h52l24 24q12 10 12 25z" />
<glyph unicode="&#x3c;" horiz-adv-x="488" d="M438 126l-36 -47l-352 219l355 222l23 -51l-264 -169z" />
<glyph unicode="=" horiz-adv-x="513" d="M50 362v64h413v-64h-413zM50 244v63h413v-63h-413z" />
<glyph unicode="&#x3e;" horiz-adv-x="490" d="M84 76l-34 48q234 149 275 175l-275 173l40 44l350 -218z" />
<glyph unicode="?" horiz-adv-x="494" d="M195 275v-158h-63v222h99q61 0 105 43.5t44 104.5t-44 105t-105 44q-69 0 -134 -80l-47 43q82 100 181 100q89 0 151 -61.5t62 -150.5t-62 -150.5t-151 -61.5h-36zM127 36q0 16 10 26t26 10q17 0 26.5 -10t9.5 -26t-9.5 -26t-26.5 -10q-16 0 -26 10t-10 26z" />
<glyph unicode="@" horiz-adv-x="598" d="M154 289q0 50 40.5 86t93.5 36q38 0 74 -19q-1 25 -20 42.5t-43 17.5q-32 0 -57 -38l-61 20q46 81 118 81q52 0 89.5 -38t37.5 -89v-159h43q16 66 16 102q0 110 -54.5 188.5t-131.5 78.5q-76 0 -130.5 -78.5t-54.5 -188.5t54.5 -188.5t130.5 -78.5q47 0 103 43l44 -45 q-82 -62 -147 -62q-104 0 -176.5 96.5t-72.5 234.5q0 137 72.5 233.5t176.5 96.5t176.5 -96.5t72.5 -233.5q0 -77 -34 -165h-152v18q-32 -18 -74 -18q-57 0 -95.5 35.5t-38.5 87.5zM217 289q0 -25 21 -42.5t50 -17.5q30 0 51.5 17.5t22.5 42.5q0 24 -21.5 41t-52.5 17 q-29 0 -50 -17t-21 -41z" />
<glyph unicode="A" horiz-adv-x="830" d="M391 700h43l267 -634h79v-66h-241v66h90l-59 138h-305l-59 -138h84v-66h-240v66h86q57 141 108 268t73 183t41.5 103t32.5 80zM414 580l-123 -310h253q-4 10 -42.5 103t-87.5 207z" />
<glyph unicode="B" horiz-adv-x="549" d="M50 634v66h239q80 0 134 -53t54 -125q0 -92 -75 -152q44 -27 70.5 -73t26.5 -98q0 -79 -59.5 -139t-139.5 -60h-250v66h83v568h-83zM300 333h-101v-267h101q53 0 93 40t40 93q0 54 -40 94t-93 40zM411 522q0 46 -35.5 79t-86.5 33h-90v-234h90q52 0 87 35t35 87z" />
<glyph unicode="C" horiz-adv-x="699" d="M602 176l47 -47q-129 -129 -267 -129q-140 0 -236 103t-96 253q0 147 95.5 245.5t236.5 98.5q104 0 190 -60v60h66v-164h-49q-92 98 -207 98q-111 0 -189 -80.5t-78 -197.5q0 -120 78.5 -205t188.5 -85q106 0 220 110z" />
<glyph unicode="D" horiz-adv-x="683" d="M199 66h100q111 0 189.5 85t78.5 205q0 117 -78 197.5t-190 80.5h-100v-568zM133 66v568h-83v66h249q141 0 237.5 -99t96.5 -245q0 -149 -97 -252.5t-237 -103.5h-249v66h83z" />
<glyph unicode="E" horiz-adv-x="538" d="M434 271h-67v62h-167v-267h223v95h65v-161h-438v66h84v568h-84v66h405v-161h-65v95h-190v-234h167v62h67v-191z" />
<glyph unicode="F" horiz-adv-x="507" d="M50 0v66h86v568h-86v66h407v-161h-66v95h-190v-234h168v62h66v-191h-66v62h-168v-267h85v-66h-236z" />
<glyph unicode="G" horiz-adv-x="807" d="M501 266v66h256v-66h-43q-28 -113 -119.5 -189.5t-209.5 -76.5q-141 0 -238 103.5t-97 252.5q0 146 96.5 245t238.5 99q109 0 200 -62v62h66v-164h-49q-92 98 -217 98q-111 0 -189 -80.5t-78 -197.5q0 -120 78 -205t189 -85q88 0 158.5 57.5t98.5 142.5h-141z" />
<glyph unicode="H" horiz-adv-x="793" d="M507 634v66h236v-66h-86v-568h86v-66h-236v66h84v267h-389v-267h84v-66h-236v66h86v568h-86v66h236v-66h-84v-234h389v234h-84z" />
<glyph unicode="I" horiz-adv-x="335" d="M50 0v66h85v568h-85v66h235v-66h-84v-568h84v-66h-235z" />
<glyph unicode="J" horiz-adv-x="600" d="M50 145v65h188v-65h-56q11 -34 40.5 -56.5t64.5 -22.5q46 0 79 33t33 78v457h-85v66h236v-66h-85v-457q0 -70 -53 -123.5t-125 -53.5q-62 0 -112 42t-63 103h-62z" />
<glyph unicode="K" horiz-adv-x="659" d="M50 634v66h236v-66h-84v-192q69 66 113 109.5t60 59.5l23 23h-24v66h235v-66h-115l-279 -267l288 -301h106v-66h-235v66h39l-211 218v-218h84v-66h-236v66h86v568h-86z" />
<glyph unicode="L" horiz-adv-x="550" d="M50 0v66h83v568h-83v66h234v-66h-85v-568h235v95h66v-161h-450z" />
<glyph unicode="M" horiz-adv-x="1070" d="M556 0h-42l-232 547l-74 -481h89v-66h-247v66h89l90 568h-88v66h149l245 -581q22 53 111 261t135 320h149v-66h-90l90 -568h90v-66h-246v66h88l-75 477z" />
<glyph unicode="N" horiz-adv-x="856" d="M50 0v66h83v568h-83v66h133l474 -578v512h-85v66h234v-66h-83v-634h-53l-470 576v-510h85v-66h-235z" />
<glyph unicode="O" horiz-adv-x="766" d="M116 356q0 -120 78.5 -205t190.5 -85q110 0 188 85t78 205q0 117 -78 197.5t-188 80.5q-112 0 -190.5 -80.5t-78.5 -197.5zM50 356q0 146 96.5 245t238.5 99q139 0 235 -99t96 -245q0 -149 -96.5 -252.5t-234.5 -103.5q-141 0 -238 103.5t-97 252.5z" />
<glyph unicode="P" horiz-adv-x="529" d="M50 0v66h86v568h-86v66h251q72 0 125 -53.5t53 -124.5q0 -81 -53 -135t-134 -54h-90v-267h84v-66h-236zM202 400h90q51 0 86 35t35 87q0 46 -33 79t-79 33h-99v-234z" />
<glyph unicode="Q" horiz-adv-x="777" d="M727 36l-47 -47l-87 89q-88 -78 -208 -78q-141 0 -238 103.5t-97 252.5q0 146 96.5 245t238.5 99q139 0 235 -99t96 -245q0 -133 -78 -231zM116 356q0 -120 79 -205t190 -85q93 0 161 58l-22 22l-30 30l-20 20l48 47l69 -71q60 78 60 184q0 117 -77.5 197.5t-188.5 80.5 q-112 0 -190.5 -80.5t-78.5 -197.5z" />
<glyph unicode="R" horiz-adv-x="635" d="M50 0v66h86v568h-86v66h251q71 0 124 -53.5t53 -124.5q0 -70 -40 -122t-102 -64q8 -13 28.5 -46.5t31.5 -51.5q17 -29 51 -86.5t52 -85.5h86v-66h-234v66h70l-162 267h-58v-267h85v-66h-236zM201 400h100q46 0 79 35.5t33 86.5q0 46 -33 79t-79 33h-100v-234z" />
<glyph unicode="S" horiz-adv-x="478" d="M116 4h-66v189h63q8 -56 44 -92t82 -36q52 0 87.5 35.5t35.5 87.5q0 53 -84 104q-107 63 -134 77q-94 57 -94 152q0 79 52 128.5t125 49.5q55 0 101 -22v17h66v-190h-66v87q-13 19 -41 30.5t-60 11.5q-47 0 -79 -31t-32 -81q0 -56 61 -93q22 -13 67.5 -40t67.5 -39 q116 -65 116 -161q0 -81 -53.5 -135t-135.5 -54q-70 0 -123 43v-38z" />
<glyph unicode="T" horiz-adv-x="554" d="M504 539h-66v95h-134v-568h84v-66h-234v66h84v568h-123v-95h-65v161h454v-161z" />
<glyph unicode="U" horiz-adv-x="769" d="M719 700v-66h-84v-378q0 -107 -74.5 -181.5t-180.5 -74.5q-105 0 -174.5 74t-69.5 182v378h-86v66h235v-66h-84v-378q0 -79 51.5 -134.5t127.5 -55.5q78 0 133.5 56t55.5 134v378h-85v66h235z" />
<glyph unicode="V" horiz-adv-x="878" d="M464 0h-41l-278 634h-95v66h235v-66h-69l229 -517l217 517h-68v66h234v-66h-95q-32 -78 -269 -634z" />
<glyph unicode="W" horiz-adv-x="1047" d="M729 0h-53l-151 527q-89 -303 -153 -527h-53l-176 634h-93v66h235v-66h-71q118 -425 132 -476q20 71 71.5 248t79.5 277h53l152 -526l133 477h-73v66h235v-66h-91z" />
<glyph unicode="X" horiz-adv-x="744" d="M694 66v-66h-236v66h51q-127 199 -140 221q-23 -36 -72.5 -108.5t-74.5 -112.5h63v-66h-235v66h96q31 48 93.5 140.5t92.5 138.5l-186 289h-96v66h235v-66h-64q98 -150 148 -230q49 75 92.5 140.5t59.5 89.5h-63v66h236v-66h-100l-188 -290l178 -278h110z" />
<glyph unicode="Y" horiz-adv-x="744" d="M146 634h-96v66h235v-66h-64q98 -150 148 -230q49 75 92.5 140.5t59.5 89.5h-63v66h236v-66h-100l-192 -297v-271h85v-66h-236v66h85v272q-14 21 -33 51t-61.5 96.5t-95.5 148.5z" />
<glyph unicode="Z" horiz-adv-x="623" d="M137 541h-66v159h491v-46l-417 -588h363v93h65v-159h-523v46l416 588h-329v-93z" />
<glyph unicode="[" horiz-adv-x="243" d="M50 -107v701h143v-63h-80v-575h80v-63h-143z" />
<glyph unicode="\" horiz-adv-x="466" d="M50 673h66l300 -673h-67z" />
<glyph unicode="]" horiz-adv-x="243" d="M193 594v-701h-143v63h80v575h-80v63h143z" />
<glyph unicode="^" horiz-adv-x="541" d="M491 372l-43 -42l-177 241l-175 -241l-46 42l221 307z" />
<glyph unicode="_" horiz-adv-x="619" d="M50 -179v63h519v-63h-519z" />
<glyph unicode="`" horiz-adv-x="320" d="M50 700h105l115 -125h-85z" />
<glyph unicode="a" horiz-adv-x="497" d="M50 141q0 60 47.5 101t109.5 41q52 0 97 -29v8q0 34 -24.5 58.5t-58.5 24.5q-51 0 -85 -61l-62 14q52 111 147 111q61 0 103.5 -42.5t42.5 -104.5v-198h80v-64h-143v27q-43 -27 -97 -27q-65 0 -111 41t-46 100zM113 141q0 -32 27.5 -54.5t66.5 -22.5q38 0 66.5 22 t30.5 53v5q-2 32 -30.5 54t-66.5 22t-66 -23t-28 -56z" />
<glyph unicode="b" horiz-adv-x="569" d="M50 0v64h80v534h-80v63h142v-305q58 53 131 53q80 0 138 -60.5t58 -144.5t-58 -144t-138 -60q-67 0 -131 53v-53h-142zM323 64q55 0 93.5 41t38.5 99t-38.5 99.5t-93.5 41.5q-53 0 -92 -39.5t-39 -93.5v-16q0 -54 39 -93t92 -39z" />
<glyph unicode="c" horiz-adv-x="466" d="M367 145l49 -41q-34 -48 -79 -76t-92 -28q-82 0 -138.5 59.5t-56.5 144.5t56.5 145t138.5 60q55 0 99 -30v26h63v-128h-50q-52 68 -112 68q-54 0 -93 -41.5t-39 -99.5t39 -99t93 -41q68 0 122 81z" />
<glyph unicode="d" horiz-adv-x="569" d="M519 64v-64h-144v52q-55 -52 -132 -52q-79 0 -136 60t-57 144t57 144.5t136 60.5q75 0 132 -54v306h144v-63h-80v-534h80zM243 64q55 0 93.5 38.5t38.5 93.5v16q-1 54 -39.5 93.5t-92.5 39.5q-53 0 -91.5 -41.5t-38.5 -99.5t38.5 -99t91.5 -41z" />
<glyph unicode="e" d="M366 145l50 -41q-34 -48 -80 -76t-93 -28q-80 0 -136.5 59.5t-56.5 144.5t56.5 145t136.5 60t138 -69.5t58 -166.5h-323q11 -46 46.5 -77.5t80.5 -31.5q69 0 123 81zM116 235h256q-11 47 -47.5 78.5t-81.5 31.5q-48 0 -84 -30.5t-43 -79.5z" />
<glyph unicode="f" horiz-adv-x="322" d="M272 409v-64h-80v-281h80v-64h-222v64h79v281h-79v64h79v136q0 47 38.5 81.5t104.5 34.5v-63q-37 0 -58.5 -16t-21.5 -37v-136h80z" />
<glyph unicode="g" horiz-adv-x="569" d="M50 199q0 87 56 146t137 59q79 0 132 -53v53h144v-63h-80v-324q0 -85 -60 -148t-151 -63q-45 0 -93 30t-82 77l46 42q29 -38 63.5 -61.5t65.5 -23.5q63 0 105 43.5t42 103.5v32q-51 -54 -132 -54q-80 0 -136.5 59.5t-56.5 144.5zM113 199q0 -58 38.5 -99t91.5 -41 q55 0 93.5 41t38.5 99q0 59 -38.5 100.5t-93.5 41.5q-53 0 -91.5 -42t-38.5 -100z" />
<glyph unicode="h" horiz-adv-x="584" d="M534 64v-64h-222v64h80v177q0 43 -27 73.5t-67 30.5q-41 0 -73 -30.5t-32 -67.5v-183h80v-64h-223v64h80v534h-80v63h143v-290q46 38 105 38q67 0 111.5 -49.5t44.5 -118.5v-177h80z" />
<glyph unicode="i" horiz-adv-x="322" d="M272 64v-64h-222v64h79v281h-79v64h142v-345h80zM125 492q0 36 35 36q17 0 27 -10t10 -26t-10 -25.5t-27 -9.5q-35 0 -35 35z" />
<glyph unicode="j" horiz-adv-x="248" d="M50 345v64h142v-472q0 -54 -39 -90t-103 -36v63q35 0 57 18.5t22 44.5v408h-79zM126 492q0 36 35 36q17 0 27 -10t10 -26t-10 -25.5t-27 -9.5q-35 0 -35 35z" />
<glyph unicode="k" horiz-adv-x="528" d="M418 409v-64h-93q-41 -40 -73 -71.5t-42 -41.5l178 -168h90v-64h-206v64h23q-76 74 -101 97v-97h50v-64h-194v64h80v534h-80v63h144v-356l40 40h-12v64h196z" />
<glyph unicode="l" horiz-adv-x="322" d="M272 64v-64h-222v64h79v534h-79v63h142v-597h80z" />
<glyph unicode="m" horiz-adv-x="783" d="M733 64v-64h-206v64h64v198q0 34 -24.5 58.5t-59.5 24.5t-59.5 -24.5t-24.5 -58.5v-198h65v-64h-192v64h64v203q0 32 -25 55t-59 23q-33 0 -58.5 -24t-25.5 -54v-203h65v-64h-207v64h80v281h-80v64h142v-25q38 25 84 25q70 0 116 -56q43 56 115 56q61 0 104 -42.5 t43 -104.5v-198h79z" />
<glyph unicode="n" horiz-adv-x="584" d="M534 64v-64h-222v64h80v177q0 43 -27 73.5t-67 30.5q-41 0 -73 -30.5t-32 -67.5v-183h80v-64h-223v64h80v281h-80v64h143v-38q46 38 105 38q67 0 111.5 -49.5t44.5 -118.5v-177h80z" />
<glyph unicode="o" d="M50 204q0 85 56.5 145t136.5 60t138 -60.5t58 -144.5t-58 -144t-138 -60t-136.5 59.5t-56.5 144.5zM113 204q0 -58 38.5 -99t91.5 -41q55 0 93.5 41t38.5 99t-38.5 99.5t-93.5 41.5q-53 0 -91.5 -41.5t-38.5 -99.5z" />
<glyph unicode="p" horiz-adv-x="569" d="M272 -126v-63h-222v63h80v471h-80v64h142v-53q58 53 131 53q82 0 139 -60t57 -145t-57 -144.5t-139 -59.5q-67 0 -131 53v-179h80zM192 212v-8q0 -58 38.5 -99t92.5 -41q55 0 93.5 41t38.5 99t-38.5 99.5t-93.5 41.5q-51 0 -89.5 -39t-41.5 -94z" />
<glyph unicode="q" horiz-adv-x="569" d="M296 -189v63h79v178q-55 -52 -132 -52q-80 0 -136.5 59.5t-56.5 144.5t56.5 145t136.5 60q75 0 132 -54v54h144v-64h-80v-471h80v-63h-223zM375 204v8q-2 55 -41 94t-91 39q-53 0 -91.5 -41.5t-38.5 -99.5t38.5 -99t91.5 -41q55 0 93.5 41t38.5 99z" />
<glyph unicode="r" horiz-adv-x="405" d="M272 64v-64h-222v64h79v281h-79v64h142v-11q31 11 52 11q34 0 65.5 -27t45.5 -71l-60 -20q-8 24 -22.5 39t-28.5 15q-24 0 -38 -15t-14 -34v-232h80z" />
<glyph unicode="s" horiz-adv-x="363" d="M176 409q31 0 54 -8v8h64v-132h-64v53q-23 15 -54 15q-26 0 -44 -12t-18 -28q0 -26 39 -47q65 -34 84 -43q26 -14 39.5 -23t25 -28.5t11.5 -46.5q0 -46 -39 -81.5t-98 -35.5q-32 0 -62 14v-14h-64v133h64q0 -29 19.5 -49t42.5 -20q32 0 53 16.5t21 36.5q0 21 -41 42 l-82 43q-77 40 -77 103q0 45 36.5 74.5t89.5 29.5z" />
<glyph unicode="t" horiz-adv-x="322" d="M129 520h63v-111h80v-64h-80v-229q0 -20 25 -36t55 -16v-64q-55 0 -99 35.5t-44 80.5v229h-79v64h79v111z" />
<glyph unicode="u" horiz-adv-x="584" d="M50 345v64h143v-241q0 -43 26.5 -73.5t66.5 -30.5q42 0 74 30.5t32 67.5v183h-80v64h142v-345h80v-64h-142v37q-45 -37 -106 -37q-67 0 -111.5 49.5t-44.5 118.5v177h-80z" />
<glyph unicode="v" horiz-adv-x="654" d="M346 0h-38l-169 345h-89v64h222v-64h-64q84 -169 118 -240q69 139 117 240h-62v64h223v-64h-90q-29 -61 -85.5 -176t-82.5 -169z" />
<glyph unicode="w" horiz-adv-x="780" d="M365 388h51l87 -253q60 173 72 210h-68v64h223v-64h-88l-113 -345h-47l-92 269q-37 -101 -94 -269h-44l-116 345h-86v64h223v-64h-70q11 -34 34.5 -103t37.5 -114z" />
<glyph unicode="x" horiz-adv-x="587" d="M537 64v-64h-223v64h51l-72 89q-8 -10 -29.5 -38t-39.5 -51h49v-64h-223v64h92l111 140l-111 141h-92v64h223v-64h-51q10 -13 32.5 -40t39.5 -49q53 70 69 89h-49v64h223v-64h-91l-111 -141q26 -32 49.5 -63t36.5 -47.5t24 -29.5h92z" />
<glyph unicode="y" horiz-adv-x="632" d="M359 345v64h223v-64h-90q-218 -442 -222 -450h64v-63h-223v63h90l78 158q-10 20 -24.5 50.5t-45.5 95t-71 146.5h-88v64h222v-64h-64q19 -41 108 -220l108 220h-65z" />
<glyph unicode="z" horiz-adv-x="407" d="M121 256h-64v153h293v-44l-211 -301h155v89h63v-153h-307v44l211 301h-140v-89z" />
<glyph unicode="{" horiz-adv-x="323" d="M273 -44v-63h-71q-31 0 -51.5 21t-20.5 53v193q0 22 -24 37.5t-56 15.5v63h30q21 0 35.5 14.5t14.5 36.5v194q0 31 20.5 52t51.5 21h71v-63h-71q-9 0 -9 -10v-194q0 -50 -35 -83q35 -35 35 -84v-193q0 -11 9 -11h71z" />
<glyph unicode="|" horiz-adv-x="163" d="M50 700h63v-700h-63v700z" />
<glyph unicode="}" horiz-adv-x="323" d="M50 -107v63h69q10 0 10 11v193q0 51 35 84q-35 32 -35 83v194q0 10 -10 10h-69v63h69q31 0 52 -21t21 -52v-194q0 -22 14 -36.5t35 -14.5h32v-63q-34 0 -57.5 -15.5t-23.5 -37.5v-193q0 -32 -20.5 -53t-52.5 -21h-69z" />
<glyph unicode="~" horiz-adv-x="590" d="M110 153l-60 21q23 55 65 88t90 33q64 0 112 -48q28 -28 68 -28q29 0 54 21.5t41 56.5l60 -18q-22 -54 -64 -88.5t-91 -34.5q-66 0 -113 47q-29 29 -67 29q-29 0 -54.5 -21.5t-40.5 -57.5z" />
<glyph unicode="&#xa1;" horiz-adv-x="171" d="M117 -188h-63v582h63v-582zM50 477q0 36 35 36q17 0 26.5 -9.5t9.5 -26.5t-9.5 -26.5t-26.5 -9.5q-35 0 -35 36z" />
<glyph unicode="&#xa2;" horiz-adv-x="466" d="M197 478h63v-69q47 -4 84 -30v26h63v-128h-50q-42 58 -97 67v-279q59 11 108 81l48 -43q-66 -95 -156 -103v-69h-63v75q-61 20 -104 75.5t-43 122.5q0 69 42 125t105 74v75zM113 204q0 -45 23 -80.5t61 -51.5v264q-37 -16 -60.5 -52t-23.5 -80z" />
<glyph unicode="&#xa3;" horiz-adv-x="619" d="M50 305v63h73q-46 66 -46 113q0 68 51 122t125 54q64 0 123 -44v40h63v-179h-63v49q-19 31 -53 51t-70 20q-46 0 -79 -34.5t-33 -78.5q0 -28 49 -99l10 -14h236v-63h-197q25 -52 25 -91q0 -90 -53 -155h83q50 0 86.5 48t36.5 117h152v-64h-91q-13 -69 -66 -117t-118 -48 h-244v64q67 0 108.5 45t41.5 110q0 40 -30 91h-120z" />
<glyph unicode="&#xa5;" horiz-adv-x="707" d="M148 178v64h171v55h-171v63h147q-17 27 -70.5 109t-83.5 129h-91v63h223v-63h-59q49 -76 88.5 -135.5t51.5 -79.5q18 28 64.5 100.5t74.5 114.5h-58v63h222v-63h-92q-21 -33 -73.5 -112t-82.5 -126h150v-63h-176v-55h176v-64h-176v-114h79v-64h-222v64h79v114h-171z" />
<glyph unicode="&#xa6;" horiz-adv-x="163" d="M50 672h63v-287h-63v287zM50 288h63v-288h-63v288z" />
<glyph unicode="&#xa7;" horiz-adv-x="363" d="M50 490q0 45 36.5 74.5t89.5 29.5q35 0 54 -7v7h64v-132h-64v54q-26 15 -54 15q-26 0 -44 -12t-18 -29q0 -28 38 -47l85 -43q26 -14 39.5 -23t25 -28.5t11.5 -45.5t-15 -52.5t-40 -43.5q55 -31 55 -87q0 -46 -39 -81.5t-98 -35.5q-30 0 -62 16v-16h-64v132h64 q0 -29 20 -49t42 -20q32 0 53 16.5t21 37.5t-41 42l-82 43q-77 40 -77 102q0 57 59 90q-59 34 -59 93zM114 307q0 -24 23 -40.5t48 -16.5q23 0 44 15.5t21 37.5q0 16 -24 33q-29 12 -50 12q-26 0 -44 -12t-18 -29z" />
<glyph unicode="&#xa8;" horiz-adv-x="315" d="M50 664q0 37 36 37q16 0 26 -10t10 -27q0 -16 -10 -25.5t-26 -9.5q-36 0 -36 35zM193 664q0 17 10 27t26 10t26 -10t10 -27q0 -16 -10 -25.5t-26 -9.5t-26 9.5t-10 25.5z" />
<glyph unicode="&#xa9;" horiz-adv-x="590" d="M378 288l45 -45q-66 -68 -128 -68q-63 0 -106 46t-43 112t43 109.5t106 43.5q31 0 55 -10v5h62v-96h-46q-34 37 -71 37q-36 0 -61 -25.5t-25 -63.5q0 -39 25 -66.5t61 -27.5q32 0 83 49zM50 333q0 107 72.5 183t172.5 76t172.5 -76t72.5 -183t-72.5 -182t-172.5 -75 t-172.5 75t-72.5 182zM114 333q0 -80 53 -137t128 -57t128 57t53 137t-53 138t-128 58t-128 -58t-53 -138z" />
<glyph unicode="&#xaa;" horiz-adv-x="381" d="M50 408q0 43 35 73.5t80 30.5q22 0 49 -9q-10 29 -41 29q-16 0 -32 -18l-61 24q40 57 93 57q43 0 75 -32.5t32 -75.5v-121h51v-63h-115v11q-24 -11 -51 -11q-49 0 -82 30.5t-33 74.5zM114 408q0 -17 15 -29.5t36 -12.5t35.5 11t15.5 28v5q-1 17 -15.5 28t-35.5 11 t-36 -12t-15 -29z" />
<glyph unicode="&#xab;" horiz-adv-x="543" d="M314 90l-41 -49l-223 213l223 211l41 -46l-175 -167zM493 90l-41 -49l-224 213l225 212l38 -48l-173 -165z" />
<glyph unicode="&#xac;" horiz-adv-x="833" />
<glyph unicode="&#xae;" horiz-adv-x="590" d="M50 333q0 107 72.5 183t172.5 76t172.5 -76t72.5 -183t-72.5 -182t-172.5 -75t-172.5 75t-72.5 182zM114 333q0 -80 53 -137t128 -57t128 57t53 137t-53 138t-128 58t-128 -58t-53 -138zM295 244v-63h-94v63h14v184h-14v64h98q35 0 61.5 -27t26.5 -62q0 -54 -45 -81 l46 -78h11v-63h-96v63h7l-3 7l-29 49v-56h17zM278 375h21q10 0 17 8t7 20q0 10 -7 17.5t-17 7.5h-21v-53z" />
<glyph unicode="&#xaf;" horiz-adv-x="413" d="M50 638v62h313v-62h-313z" />
<glyph unicode="&#xb0;" horiz-adv-x="375" d="M50 459q0 58 39.5 97.5t98.5 39.5q58 0 97.5 -39.5t39.5 -97.5t-39.5 -97.5t-97.5 -39.5t-98 39.5t-40 97.5zM114 459q0 -30 22 -52t52 -22q31 0 52.5 22t21.5 52q0 31 -21.5 52.5t-52.5 21.5q-30 0 -52 -21.5t-22 -52.5z" />
<glyph unicode="&#xb1;" horiz-adv-x="476" d="M269 106h-63v157h-156v63h156v157h63v-157h157v-63h-157v-157zM426 0h-376v64h376v-64z" />
<glyph unicode="&#xb2;" horiz-adv-x="341" d="M182 522l-58 -27q-23 41 -23 71q0 39 29.5 68.5t67.5 29.5q39 0 66 -29.5t27 -68.5q0 -26 -24 -62l-79 -91h39v34h64v-98h-241l166 194q11 13 11 23q0 13 -9 23.5t-20 10.5q-13 0 -23 -10t-10 -24q0 -10 17 -44z" />
<glyph unicode="&#xb3;" horiz-adv-x="301" d="M100 548h50q10 0 17 7.5t7 17.5t-7 17.5t-17 7.5q-15 0 -30 -36l-59 23q35 76 89 76q35 0 61.5 -26.5t26.5 -61.5t-16 -54q29 -33 29 -71q0 -44 -28.5 -73t-72.5 -29q-29 0 -57 24.5t-43 60.5l60 21q5 -17 17 -29.5t23 -12.5q16 0 27 11t11 27q0 15 -11 26t-27 11h-50v63 z" />
<glyph unicode="&#xb4;" horiz-adv-x="321" d="M167 701h104l-135 -125h-86z" />
<glyph unicode="&#xb6;" horiz-adv-x="576" d="M374 -145h-63v395h-84q-77 0 -127 50.5t-50 127.5q0 68 50 118t118 50h308v-63h-72v-678h-63v678h-17v-678z" />
<glyph unicode="&#xb7;" horiz-adv-x="171" d="M50 297q0 15 9.5 25.5t25.5 10.5t26 -10.5t10 -25.5q0 -16 -10 -26t-26 -10t-25.5 10t-9.5 26z" />
<glyph unicode="&#xb8;" horiz-adv-x="288" d="M50 -78h66q10 -32 28 -32q13 0 22 9.5t9 22.5t-9.5 22t-22.5 9h-56l82 127l45 -41l-23 -35q47 -30 47 -82q0 -41 -27 -68.5t-67 -27.5q-36 0 -61.5 27t-32.5 69z" />
<glyph unicode="&#xb9;" horiz-adv-x="246" d="M196 405v-63h-129v63h31v161q-3 -3 -4 -3l-44 48l111 69v-275h35z" />
<glyph unicode="&#xba;" horiz-adv-x="379" d="M50 449q0 62 40.5 104t100.5 42q56 0 97 -42.5t41 -103.5t-41 -103.5t-97 -42.5q-60 0 -100.5 42t-40.5 104zM114 449q0 -34 22.5 -58.5t54.5 -24.5q31 0 53 24.5t22 58.5t-22 58.5t-53 24.5q-32 0 -54.5 -24.5t-22.5 -58.5z" />
<glyph unicode="&#xbb;" horiz-adv-x="539" d="M263 39l-28 48l166 167l-177 165l41 46l224 -211zM90 40l-32 47q148 147 168 167l-176 165l41 46l223 -211z" />
<glyph unicode="&#xbc;" horiz-adv-x="536" d="M398 661h66l-293 -661h-66zM452 299l-48 -105h47v-53h35v-63h-35v-14h35v-64h-129v64h31v14h-103l107 239zM381 141h7v14zM196 405v-63h-127v63h29v161q-3 -3 -4 -3l-44 48l112 69v-275h34z" />
<glyph unicode="&#xbd;" horiz-adv-x="554" d="M395 661h67l-293 -661h-67zM195 405v-63h-129v63h31v162l-4 -4l-43 48l109 69v-275h36zM395 173l-58 -27q-23 41 -23 71q0 39 29.5 68.5t67.5 29.5q39 0 66 -29.5t27 -68.5q0 -26 -24 -62l-79 -91h39v34h64v-98h-241l166 194q11 13 11 23q0 13 -9 23.5t-20 10.5 q-13 0 -23 -10t-10 -24q0 -10 17 -44z" />
<glyph unicode="&#xbe;" horiz-adv-x="555" d="M417 661h66l-293 -661h-67zM100 548h50q10 0 17 7.5t7 17.5t-7 17.5t-17 7.5q-15 0 -30 -36l-59 23q35 76 89 76q35 0 61.5 -26.5t26.5 -61.5t-16 -54q29 -33 29 -71q0 -44 -28.5 -73t-72.5 -29q-29 0 -57 24.5t-43 60.5l60 21q5 -17 17 -29.5t23 -12.5q16 0 27 11t11 27 q0 15 -11 26t-27 11h-50v63zM471 299l-48 -105h47v-53h35v-63h-35v-14h35v-64h-128v64h30v14h-103l107 239zM401 141h6v14z" />
<glyph unicode="&#xbf;" horiz-adv-x="494" d="M299 234v158h63v-222h-99q-61 0 -105 -43.5t-44 -104.5q0 -62 44 -105.5t105 -43.5q69 0 134 80l47 -43q-82 -100 -181 -100q-89 0 -151 61.5t-62 150.5t62 150.5t151 61.5h36zM367 473q0 -16 -10 -26t-26 -10q-17 0 -26.5 9.5t-9.5 26.5t9.5 26.5t26.5 9.5q16 0 26 -10 t10 -26z" />
<glyph unicode="&#xc0;" horiz-adv-x="830" d="M391 700h43l267 -634h79v-66h-241v66h90l-59 138h-305l-59 -138h84v-66h-240v66h86q57 141 108 268t73 183t41.5 103t32.5 80zM414 580l-123 -310h253q-4 10 -42.5 103t-87.5 207zM295 881h110l122 -131h-90z" />
<glyph unicode="&#xc1;" horiz-adv-x="830" d="M391 700h43l267 -634h79v-66h-241v66h90l-59 138h-305q-20 -49 -59 -138h84v-66h-240v66h86q57 141 108 268t73 183t41.5 103t32.5 80zM414 580l-123 -310h253q-4 10 -42.5 103t-87.5 207zM425 881h108l-142 -131h-90z" />
<glyph unicode="&#xc2;" horiz-adv-x="830" d="M391 700h43l267 -634h79v-66h-241v66h90l-59 138h-305l-59 -138h84v-66h-240v66h86q57 141 108 268t73 183t41.5 103t32.5 80zM414 580l-123 -310h253q-4 10 -42.5 103t-87.5 207zM352 749h-102l163 140l165 -139h-101l-63 52q-3 -3 -6.5 -6t-18.5 -15.5t-37 -31.5z" />
<glyph unicode="&#xc3;" horiz-adv-x="830" d="M391 700h43l267 -634h79v-66h-241v66h90l-59 138h-305q-20 -49 -59 -138h84v-66h-240v66h86q57 141 108 268t73 183t41.5 103t32.5 80zM414 580l-123 -310h253q-4 10 -42.5 103t-87.5 207zM324 744l-60 26q36 83 96 83q39 0 65 -28q19 -12 30 -12q27 0 46 47l62 -21 q-17 -43 -45.5 -67.5t-62.5 -24.5q-45 0 -72 27q-17 13 -23 13q-18 0 -36 -43z" />
<glyph unicode="&#xc4;" horiz-adv-x="830" d="M391 700h43l267 -634h79v-66h-241v66h90l-59 138h-305l-59 -138h84v-66h-240v66h86q57 141 108 268t73 183t41.5 103t32.5 80zM414 580l-123 -310h253q-4 10 -42.5 103t-87.5 207zM308 789q0 37 36 37q16 0 26 -10t10 -27q0 -16 -10 -25.5t-26 -9.5q-36 0 -36 35z M451 789q0 17 10 27t26 10t26 -10t10 -27q0 -16 -10 -25.5t-26 -9.5t-26 9.5t-10 25.5z" />
<glyph unicode="&#xc5;" horiz-adv-x="830" d="M391 700h43l267 -634h79v-66h-241v66h90l-59 138h-305l-59 -138h84v-66h-240v66h86q57 141 108 268t73 183t41.5 103t32.5 80zM414 580l-123 -310h253q-4 10 -42.5 103t-87.5 207zM314 826q0 42 28.5 70.5t70.5 28.5q44 0 72.5 -28.5t28.5 -70.5q0 -44 -28.5 -72 t-72.5 -28q-42 0 -70.5 28.5t-28.5 71.5zM380 826q0 -15 9.5 -25t23.5 -10q15 0 25 10t10 25q0 14 -10 24t-25 10q-13 0 -23 -10t-10 -24z" />
<glyph unicode="&#xc6;" horiz-adv-x="788" d="M681 271h-65v62h-168v-267h224v95h66v-161h-412v66h57v138h-118l-55 -138h51v-66h-211v66h88q12 31 230 568h-70v66h407v-161h-66v95h-191v-234h168v62h65v-191zM290 270h93v224q-28 -69 -49 -118.5t-30 -70.5t-14 -35z" />
<glyph unicode="&#xc7;" horiz-adv-x="699" d="M243 -55h66q0 -26 9.5 -44.5t23.5 -18.5q15 0 25 10t10 24t-10.5 23.5t-25.5 9.5h-57l36 57q-119 23 -194.5 120.5t-75.5 229.5q0 147 95.5 245.5t236.5 98.5q104 0 190 -60v60h66v-164h-49q-92 98 -207 98q-111 0 -189 -80.5t-78 -197.5q0 -120 78.5 -205t188.5 -85 q106 0 220 110l47 -47q-121 -121 -255 -128q49 -33 49 -85q0 -44 -28.5 -72t-72.5 -28q-42 0 -70.5 37.5t-28.5 91.5z" />
<glyph unicode="&#xc8;" horiz-adv-x="538" d="M434 271h-67v62h-167v-267h223v95h65v-161h-438v66h84v568h-84v66h405v-161h-65v95h-190v-234h167v62h67v-191zM151 881h109l122 -131h-89z" />
<glyph unicode="&#xc9;" horiz-adv-x="538" d="M434 271h-67v62h-167v-267h223v95h65v-161h-438v66h84v568h-84v66h405v-161h-65v95h-190v-234h167v62h67v-191zM280 881h110l-144 -131h-89z" />
<glyph unicode="&#xca;" horiz-adv-x="538" d="M434 271h-67v62h-167v-267h223v95h65v-161h-438v66h84v568h-84v66h405v-161h-65v95h-190v-234h167v62h67v-191zM208 749h-103l163 140l165 -139h-101l-64 53q-2 -1 -6.5 -5.5t-18 -17t-35.5 -31.5z" />
<glyph unicode="&#xcb;" horiz-adv-x="538" d="M434 271h-67v62h-167v-267h223v95h65v-161h-438v66h84v568h-84v66h405v-161h-65v95h-190v-234h167v62h67v-191zM163 785q0 37 36 37q16 0 26 -10t10 -27q0 -16 -10 -25.5t-26 -9.5q-36 0 -36 35zM306 785q0 17 10 27t26 10t26 -10t10 -27q0 -16 -10 -25.5t-26 -9.5 t-26 9.5t-10 25.5z" />
<glyph unicode="&#xcc;" horiz-adv-x="336" d="M51 0v66h85v568h-85v66h235v-66h-84v-568h84v-66h-235zM50 881h108l124 -131h-90z" />
<glyph unicode="&#xcd;" horiz-adv-x="337" d="M50 0v66h85v568h-85v66h235v-66h-84v-568h84v-66h-235zM177 881h110l-142 -131h-90z" />
<glyph unicode="&#xce;" horiz-adv-x="429" d="M97 0v66h83v568h-83v66h234v-66h-84v-568h84v-66h-234zM152 750h-102l164 140l165 -139h-101l-64 53z" />
<glyph unicode="&#xcf;" horiz-adv-x="335" d="M50 0v66h85v568h-85v66h235v-66h-84v-568h84v-66h-235zM60 785q0 37 36 37q16 0 26 -10t10 -27q0 -16 -10 -25.5t-26 -9.5q-36 0 -36 35zM203 785q0 17 10 27t26 10t26 -10t10 -27q0 -16 -10 -25.5t-26 -9.5t-26 9.5t-10 25.5z" />
<glyph unicode="&#xd0;" horiz-adv-x="683" d="M50 333v67h83v234h-83v66h249q141 0 237.5 -99t96.5 -245q0 -149 -97 -252.5t-237 -103.5h-249v66h83v267h-83zM199 66h100q111 0 189.5 85t78.5 205q0 117 -78 197.5t-190 80.5h-100v-234h136v-67h-136v-267z" />
<glyph unicode="&#xd1;" horiz-adv-x="856" d="M50 0v66h83v568h-83v66h133l474 -578v512h-85v66h234v-66h-83v-634h-53l-470 576v-510h85v-66h-235zM331 742l-60 26q37 83 96 83q42 0 66 -29q18 -11 29 -11q27 0 46 47l62 -21q-17 -43 -45.5 -67.5t-62.5 -24.5q-44 0 -72 26q-16 14 -23 14q-18 0 -36 -43z" />
<glyph unicode="&#xd2;" horiz-adv-x="766" d="M116 356q0 -120 78.5 -205t190.5 -85q110 0 188 85t78 205q0 117 -78 197.5t-188 80.5q-112 0 -190.5 -80.5t-78.5 -197.5zM50 356q0 146 96.5 245t238.5 99q139 0 235 -99t96 -245q0 -149 -96.5 -252.5t-234.5 -103.5q-141 0 -238 103.5t-97 252.5zM263 881h110 l123 -131h-89z" />
<glyph unicode="&#xd3;" horiz-adv-x="766" d="M116 356q0 -120 78.5 -205t190.5 -85q110 0 188 85t78 205q0 117 -78 197.5t-188 80.5q-112 0 -190.5 -80.5t-78.5 -197.5zM50 356q0 146 96.5 245t238.5 99q139 0 235 -99t96 -245q0 -149 -96.5 -252.5t-234.5 -103.5q-141 0 -238 103.5t-97 252.5zM393 881h111 l-144 -131h-89z" />
<glyph unicode="&#xd4;" horiz-adv-x="766" d="M116 356q0 -120 78.5 -205t190.5 -85q110 0 188 85t78 205q0 117 -78 197.5t-188 80.5q-112 0 -190.5 -80.5t-78.5 -197.5zM50 356q0 146 96.5 245t238.5 99q139 0 235 -99t96 -245q0 -149 -96.5 -252.5t-234.5 -103.5q-141 0 -238 103.5t-97 252.5zM321 750h-102 l165 140l163 -139h-99l-64 53q-8 -7 -29.5 -24.5t-33.5 -29.5z" />
<glyph unicode="&#xd5;" horiz-adv-x="766" d="M116 356q0 -120 78.5 -205t190.5 -85q110 0 188 85t78 205q0 117 -78 197.5t-188 80.5q-112 0 -190.5 -80.5t-78.5 -197.5zM50 356q0 146 96.5 245t238.5 99q139 0 235 -99t96 -245q0 -149 -96.5 -252.5t-234.5 -103.5q-141 0 -238 103.5t-97 252.5zM294 743l-61 26 q34 83 95 83q40 0 67 -29q9 -11 29 -11q12 0 25 13.5t21 33.5l63 -21q-18 -43 -47 -67.5t-62 -24.5q-45 0 -72 27q-15 13 -24 13q-18 0 -34 -43z" />
<glyph unicode="&#xd6;" horiz-adv-x="766" d="M116 356q0 -120 78.5 -205t190.5 -85q110 0 188 85t78 205q0 117 -78 197.5t-188 80.5q-112 0 -190.5 -80.5t-78.5 -197.5zM50 356q0 146 96.5 245t238.5 99q139 0 235 -99t96 -245q0 -149 -96.5 -252.5t-234.5 -103.5q-141 0 -238 103.5t-97 252.5zM276 785q0 37 36 37 q16 0 26 -10t10 -27q0 -16 -10 -25.5t-26 -9.5q-36 0 -36 35zM419 785q0 17 10 27t26 10t26 -10t10 -27q0 -16 -10 -25.5t-26 -9.5t-26 9.5t-10 25.5z" />
<glyph unicode="&#xd7;" horiz-adv-x="414" d="M364 180l-48 -41l-111 111l-112 -112l-43 46l111 110l-111 111l43 46l112 -112l111 111l46 -43l-113 -113q89 -89 115 -114z" />
<glyph unicode="&#xd8;" horiz-adv-x="766" d="M504 700h75l-25 -48q73 -46 117.5 -124t44.5 -172q0 -149 -96.5 -252.5t-234.5 -103.5q-61 0 -111 18l-7 -18h-75l22 47q-78 46 -121 126.5t-43 182.5q0 146 96.5 245t238.5 99q57 0 109 -18zM385 66q110 0 188 85t78 205q0 72 -34 135t-88 101l-230 -512q42 -14 86 -14z M116 356q0 -75 35 -141.5t91 -106.5l226 513q-36 13 -83 13q-112 0 -190.5 -80.5t-78.5 -197.5z" />
<glyph unicode="&#xd9;" horiz-adv-x="769" d="M719 700v-66h-84v-378q0 -107 -74.5 -181.5t-180.5 -74.5q-105 0 -174.5 74t-69.5 182v378h-86v66h235v-66h-84v-378q0 -79 51.5 -134.5t127.5 -55.5q78 0 133.5 56t55.5 134v378h-85v66h235zM264 881h110l123 -131h-89z" />
<glyph unicode="&#xda;" horiz-adv-x="769" d="M719 700v-66h-84v-378q0 -107 -74.5 -181.5t-180.5 -74.5q-105 0 -174.5 74t-69.5 182v378h-86v66h235v-66h-84v-378q0 -79 51.5 -134.5t127.5 -55.5q78 0 133.5 56t55.5 134v378h-85v66h235zM394 881h111l-144 -131h-89z" />
<glyph unicode="&#xdb;" horiz-adv-x="769" d="M719 700v-66h-84v-378q0 -107 -74.5 -181.5t-180.5 -74.5q-105 0 -174.5 74t-69.5 182v378h-86v66h235v-66h-84v-378q0 -79 51.5 -134.5t127.5 -55.5q78 0 133.5 56t55.5 134v378h-85v66h235zM323 750h-102l165 140l163 -139h-99l-64 53q-60 -51 -63 -54z" />
<glyph unicode="&#xdc;" horiz-adv-x="769" d="M719 700v-66h-84v-378q0 -107 -74.5 -181.5t-180.5 -74.5q-105 0 -174.5 74t-69.5 182v378h-86v66h235v-66h-84v-378q0 -79 51.5 -134.5t127.5 -55.5q78 0 133.5 56t55.5 134v378h-85v66h235zM276 789q0 37 36 37q16 0 26 -10t10 -27q0 -16 -10 -25.5t-26 -9.5 q-36 0 -36 35zM419 789q0 17 10 27t26 10t26 -10t10 -27q0 -16 -10 -25.5t-26 -9.5t-26 9.5t-10 25.5z" />
<glyph unicode="&#xdd;" horiz-adv-x="744" d="M146 634h-96v66h235v-66h-64q98 -150 148 -230q49 75 92.5 140.5t59.5 89.5h-63v66h236v-66h-100l-192 -297v-271h85v-66h-236v66h85v272q-14 21 -33 51t-61.5 96.5t-95.5 148.5zM410 881h108l-142 -131h-90z" />
<glyph unicode="&#xde;" horiz-adv-x="596" d="M201 0v-153h-151v66h84v606h-84v65h151v-151h140q84 0 144.5 -63t60.5 -153q0 -91 -60.5 -154t-144.5 -63h-140zM201 367v-301h140q57 0 98 44.5t41 106.5t-41 106t-98 44h-140z" />
<glyph unicode="&#xdf;" horiz-adv-x="525" d="M250 0v64h39q50 0 87.5 37t37.5 88q0 50 -37.5 88t-87.5 38h-39v0v1v0v1v1v1v1v1v1v1v1v1v1v1v2v1v1v1v1v2v1v1v2v1v1v2v1v2v1v2v1v2v1v2v1v2v2v1v2v2v1v2v10q61 0 102 33t41 81q0 44 -34 75t-82 31q-34 0 -58.5 -25.5t-24.5 -61.5v-511h-144v64h80v447q0 64 42.5 107 t104.5 43q76 0 127 -50t51 -119q0 -87 -70 -142q41 -25 65.5 -68t24.5 -93q0 -75 -55.5 -132t-130.5 -57h-39z" />
<glyph unicode="&#xe0;" horiz-adv-x="497" d="M134 583h105l117 -124h-86zM50 141q0 60 47.5 101t109.5 41q52 0 97 -29v8q0 34 -24.5 58.5t-58.5 24.5q-51 0 -85 -61l-62 14q52 111 147 111q61 0 103.5 -42.5t42.5 -104.5v-198h80v-64h-143v27q-43 -27 -97 -27q-65 0 -111 41t-46 100zM113 141q0 -32 27.5 -54.5 t66.5 -22.5q38 0 66.5 22t30.5 53v5q-2 32 -30.5 54t-66.5 22t-66 -23t-28 -56z" />
<glyph unicode="&#xe1;" horiz-adv-x="497" d="M258 583h106l-137 -124h-85zM50 141q0 60 47.5 101t109.5 41q52 0 97 -29v8q0 34 -24.5 58.5t-58.5 24.5q-51 0 -85 -61l-62 14q52 111 147 111q61 0 103.5 -42.5t42.5 -104.5v-198h80v-64h-143v27q-43 -27 -97 -27q-65 0 -111 41t-46 100zM113 141q0 -32 27.5 -54.5 t66.5 -22.5q38 0 66.5 22t30.5 53v5q-2 32 -30.5 54t-66.5 22t-66 -23t-28 -56z" />
<glyph unicode="&#xe2;" horiz-adv-x="497" d="M189 459h-98l155 132l160 -131h-99l-60 48q-9 -7 -29.5 -24t-28.5 -25zM50 141q0 60 47.5 101t109.5 41q52 0 97 -29v8q0 34 -24.5 58.5t-58.5 24.5q-51 0 -85 -61l-62 14q52 111 147 111q61 0 103.5 -42.5t42.5 -104.5v-198h80v-64h-143v27q-43 -27 -97 -27 q-65 0 -111 41t-46 100zM113 141q0 -32 27.5 -54.5t66.5 -22.5q38 0 66.5 22t30.5 53v5q-2 32 -30.5 54t-66.5 22t-66 -23t-28 -56z" />
<glyph unicode="&#xe3;" horiz-adv-x="497" d="M159 452l-60 24q15 36 39 57.5t51 21.5q34 0 62 -26q18 -11 30 -11q24 0 42 44l60 -19q-35 -87 -102 -87q-48 0 -69 24q-17 13 -23 13q-15 0 -30 -41zM50 141q0 60 47.5 101t109.5 41q52 0 97 -29v8q0 34 -24.5 58.5t-58.5 24.5q-51 0 -85 -61l-62 14q52 111 147 111 q61 0 103.5 -42.5t42.5 -104.5v-198h80v-64h-143v27q-43 -27 -97 -27q-65 0 -111 41t-46 100zM113 141q0 -32 27.5 -54.5t66.5 -22.5q38 0 66.5 22t30.5 53v5q-2 32 -30.5 54t-66.5 22t-66 -23t-28 -56z" />
<glyph unicode="&#xe4;" horiz-adv-x="497" d="M50 141q0 60 47.5 101t109.5 41q52 0 97 -29v8q0 34 -24.5 58.5t-58.5 24.5q-51 0 -85 -61l-62 14q52 111 147 111q61 0 103.5 -42.5t42.5 -104.5v-198h80v-64h-143v27q-43 -27 -97 -27q-65 0 -111 41t-46 100zM113 141q0 -32 27.5 -54.5t66.5 -22.5q38 0 66.5 22 t30.5 53v5q-2 32 -30.5 54t-66.5 22t-66 -23t-28 -56zM141 494q0 37 36 37q16 0 26 -10t10 -27q0 -16 -10 -25.5t-26 -9.5q-36 0 -36 35zM284 494q0 17 10 27t26 10t26 -10t10 -27q0 -16 -10 -25.5t-26 -9.5t-26 9.5t-10 25.5z" />
<glyph unicode="&#xe5;" horiz-adv-x="497" d="M153 537q0 40 27 67t67 27q42 0 69 -27t27 -67q0 -41 -27 -68t-69 -27q-40 0 -67 27t-27 68zM216 537q0 -14 9 -23.5t22 -9.5t23 10t10 23t-9.5 22t-23.5 9q-13 0 -22 -9t-9 -22zM50 141q0 60 47.5 101t109.5 41q52 0 97 -29v8q0 34 -24.5 58.5t-58.5 24.5q-51 0 -85 -61 l-62 14q52 111 147 111q61 0 103.5 -42.5t42.5 -104.5v-198h80v-64h-143v27q-43 -27 -97 -27q-65 0 -111 41t-46 100zM113 141q0 -32 27.5 -54.5t66.5 -22.5q38 0 66.5 22t30.5 53v5q-2 32 -30.5 54t-66.5 22t-66 -23t-28 -56z" />
<glyph unicode="&#xe6;" horiz-adv-x="743" d="M50 141q0 60 47.5 101t110.5 41q58 0 96 -28v7q0 34 -24.5 58.5t-58.5 24.5q-48 0 -83 -61l-63 17q53 108 146 108q40 0 74.5 -20.5t52.5 -54.5q66 75 151 75q79 0 136.5 -69.5t57.5 -166.5h-323q12 -47 47.5 -78t81.5 -31q32 0 64 21.5t57 59.5l49 -41 q-34 -48 -78.5 -76t-91.5 -28q-24 0 -52 7v-7h-143v28q-43 -28 -96 -28q-64 0 -111 41t-47 100zM114 141q0 -32 27.5 -54.5t66.5 -22.5q38 0 66.5 22t29.5 53v5q-1 31 -29.5 53.5t-66.5 22.5t-66 -23t-28 -56zM370 235h256q-11 47 -47 78.5t-80 31.5q-50 0 -85.5 -30.5 t-43.5 -79.5z" />
<glyph unicode="&#xe7;" horiz-adv-x="466" d="M136 -78h65q10 -32 29 -32q13 0 22 9.5t9 22.5t-9.5 22t-22.5 9h-56l31 52q-68 14 -111 69t-43 130q0 85 56.5 145t138.5 60q55 0 99 -30v26h63v-128h-50q-52 68 -112 68q-54 0 -93 -41.5t-39 -99.5t39 -99t93 -41q68 0 123 82l48 -43q-28 -39 -65 -66t-73 -34 q46 -30 46 -81q0 -41 -27 -68.5t-67 -27.5q-36 0 -61.5 27t-32.5 69z" />
<glyph unicode="&#xe8;" d="M366 145l50 -41q-34 -48 -80 -76t-93 -28q-80 0 -136.5 59.5t-56.5 144.5t56.5 145t136.5 60t138 -69.5t58 -166.5h-323q11 -46 46.5 -77.5t80.5 -31.5q69 0 123 81zM116 235h256q-11 47 -47.5 78.5t-81.5 31.5q-48 0 -84 -30.5t-43 -79.5zM130 583h105l117 -124h-86z " />
<glyph unicode="&#xe9;" d="M366 145l50 -41q-34 -48 -80 -76t-93 -28q-80 0 -136.5 59.5t-56.5 144.5t56.5 145t136.5 60t138 -69.5t58 -166.5h-323q11 -46 46.5 -77.5t80.5 -31.5q69 0 123 81zM116 235h256q-11 47 -47.5 78.5t-81.5 31.5q-48 0 -84 -30.5t-43 -79.5zM254 583h106l-137 -124h-85z " />
<glyph unicode="&#xea;" d="M366 145l50 -41q-34 -48 -80 -76t-93 -28q-80 0 -136.5 59.5t-56.5 144.5t56.5 145t136.5 60t138 -69.5t58 -166.5h-323q11 -46 46.5 -77.5t80.5 -31.5q69 0 123 81zM116 235h256q-11 47 -47.5 78.5t-81.5 31.5q-48 0 -84 -30.5t-43 -79.5zM187 459h-100l155 132 l161 -131h-100l-60 48q-9 -8 -28 -24.5t-28 -24.5z" />
<glyph unicode="&#xeb;" d="M366 145l50 -41q-34 -48 -80 -76t-93 -28q-80 0 -136.5 59.5t-56.5 144.5t56.5 145t136.5 60t138 -69.5t58 -166.5h-323q11 -46 46.5 -77.5t80.5 -31.5q69 0 123 81zM116 235h256q-11 47 -47.5 78.5t-81.5 31.5q-48 0 -84 -30.5t-43 -79.5zM137 504q0 37 36 37 q16 0 26 -10t10 -27q0 -16 -10 -25.5t-26 -9.5q-36 0 -36 35zM280 504q0 17 10 27t26 10t26 -10t10 -27q0 -16 -10 -25.5t-26 -9.5t-26 9.5t-10 25.5z" />
<glyph unicode="&#xec;" horiz-adv-x="326" d="M276 64v-64h-222v64h79v281h-79v64h142v-345h80zM50 583h105l117 -124h-86z" />
<glyph unicode="&#xed;" horiz-adv-x="326" d="M272 64v-64h-222v64h79v281h-79v64h142v-345h80zM171 583h105l-137 -124h-85z" />
<glyph unicode="&#xee;" horiz-adv-x="412" d="M318 64v-64h-223v64h79v281h-79v64h143v-345h80zM146 459h-96l157 132l155 -131h-96l-59 48z" />
<glyph unicode="&#xef;" horiz-adv-x="322" d="M272 64v-64h-222v64h79v281h-79v64h142v-345h80zM54 494q0 37 36 37q16 0 26 -10t10 -27q0 -16 -10 -25.5t-26 -9.5q-36 0 -36 35zM197 494q0 17 10 27t26 10t26 -10t10 -27q0 -16 -10 -25.5t-26 -9.5t-26 9.5t-10 25.5z" />
<glyph unicode="&#xf0;" horiz-adv-x="524" d="M158 418l-45 45l75 75q-10 12 -36 45t-39 48l47 42l73 -90l89 89l45 -46l-94 -93l152 -180q49 -58 49 -136q0 -91 -62.5 -153.5t-154.5 -62.5q-83 0 -145 63t-62 153q0 89 61.5 148t145.5 59q19 0 29 -1q-11 14 -30.5 36.5t-26.5 30.5zM412 217q0 63 -45 103.5t-110 40.5 q-58 0 -100.5 -41t-42.5 -103t42.5 -107t100.5 -45q64 0 109.5 44.5t45.5 107.5z" />
<glyph unicode="&#xf1;" horiz-adv-x="584" d="M534 64v-64h-222v64h80v177q0 43 -27 73.5t-67 30.5q-41 0 -73 -30.5t-32 -67.5v-183h80v-64h-223v64h80v281h-80v64h143v-38q46 38 105 38q67 0 111.5 -49.5t44.5 -118.5v-177h80zM208 455l-58 24q35 80 92 80q38 0 62 -28q11 -9 27 -9q25 0 44 43l59 -19 q-35 -87 -103 -87q-45 0 -68 24q-15 13 -21 13q-16 0 -34 -41z" />
<glyph unicode="&#xf2;" d="M50 204q0 85 56.5 145t136.5 60t138 -60.5t58 -144.5t-58 -144t-138 -60t-136.5 59.5t-56.5 144.5zM113 204q0 -58 38.5 -99t91.5 -41q55 0 93.5 41t38.5 99t-38.5 99.5t-93.5 41.5q-53 0 -91.5 -41.5t-38.5 -99.5zM130 583h105l117 -124h-86z" />
<glyph unicode="&#xf3;" d="M50 204q0 85 56.5 145t136.5 60t138 -60.5t58 -144.5t-58 -144t-138 -60t-136.5 59.5t-56.5 144.5zM113 204q0 -58 38.5 -99t91.5 -41q55 0 93.5 41t38.5 99t-38.5 99.5t-93.5 41.5q-53 0 -91.5 -41.5t-38.5 -99.5zM254 583h106l-137 -124h-85z" />
<glyph unicode="&#xf4;" d="M50 204q0 85 56.5 145t136.5 60t138 -60.5t58 -144.5t-58 -144t-138 -60t-136.5 59.5t-56.5 144.5zM113 204q0 -58 38.5 -99t91.5 -41q55 0 93.5 41t38.5 99t-38.5 99.5t-93.5 41.5q-53 0 -91.5 -41.5t-38.5 -99.5zM187 459h-100l155 132l161 -131h-100l-60 48 q-9 -8 -28 -24.5t-28 -24.5z" />
<glyph unicode="&#xf5;" d="M50 204q0 85 56.5 145t136.5 60t138 -60.5t58 -144.5t-58 -144t-138 -60t-136.5 59.5t-56.5 144.5zM113 204q0 -58 38.5 -99t91.5 -41q55 0 93.5 41t38.5 99t-38.5 99.5t-93.5 41.5q-53 0 -91.5 -41.5t-38.5 -99.5zM159 451l-57 24q15 36 39.5 58t51.5 22q41 0 62 -27 q12 -10 27 -10q25 0 44 43l61 -19q-16 -41 -44 -64t-61 -23q-44 0 -67 24q-17 13 -22 13q-16 0 -34 -41z" />
<glyph unicode="&#xf6;" d="M50 204q0 85 56.5 145t136.5 60t138 -60.5t58 -144.5t-58 -144t-138 -60t-136.5 59.5t-56.5 144.5zM113 204q0 -58 38.5 -99t91.5 -41q55 0 93.5 41t38.5 99t-38.5 99.5t-93.5 41.5q-53 0 -91.5 -41.5t-38.5 -99.5zM136 494q0 37 36 37q16 0 26 -10t10 -27 q0 -16 -10 -25.5t-26 -9.5q-36 0 -36 35zM279 494q0 17 10 27t26 10t26 -10t10 -27q0 -16 -10 -25.5t-26 -9.5t-26 9.5t-10 25.5z" />
<glyph unicode="&#xf7;" horiz-adv-x="513" d="M220 186q0 16 10 26t26 10t26 -10t10 -26t-10 -26t-26 -10t-26 10t-10 26zM220 399q0 15 10 25.5t26 10.5t26 -10.5t10 -25.5q0 -16 -10 -26.5t-26 -10.5t-26 10.5t-10 26.5zM50 263v63h413v-63h-413z" />
<glyph unicode="&#xf8;" d="M298 409h68l-15 -35q41 -29 64.5 -74t23.5 -96q0 -84 -58 -144t-138 -60q-26 0 -54 7l-3 -7h-72l17 35q-81 58 -81 169q0 85 56.5 145t136.5 60q29 0 52 -8q0 1 2 4q1 3 1 4zM243 64q55 0 93.5 41t38.5 99q0 67 -50 112l-111 -249q15 -3 29 -3zM113 204q0 -65 46 -108 l110 246q-12 3 -26 3q-53 0 -91.5 -41.5t-38.5 -99.5z" />
<glyph unicode="&#xf9;" horiz-adv-x="584" d="M50 345v64h143v-241q0 -43 26.5 -73.5t66.5 -30.5q42 0 74 30.5t32 67.5v183h-80v64h142v-345h80v-64h-142v37q-45 -37 -106 -37q-67 0 -111.5 49.5t-44.5 118.5v177h-80zM181 583h103l117 -124h-87z" />
<glyph unicode="&#xfa;" horiz-adv-x="584" d="M50 345v64h143v-241q0 -43 26.5 -73.5t66.5 -30.5q42 0 74 30.5t32 67.5v183h-80v64h142v-345h80v-64h-142v37q-45 -37 -106 -37q-67 0 -111.5 49.5t-44.5 118.5v177h-80zM302 583h105l-136 -124h-85z" />
<glyph unicode="&#xfb;" horiz-adv-x="584" d="M50 345v64h143v-241q0 -43 26.5 -73.5t66.5 -30.5q42 0 74 30.5t32 67.5v183h-80v64h142v-345h80v-64h-142v37q-45 -37 -106 -37q-67 0 -111.5 49.5t-44.5 118.5v177h-80zM234 459h-99l155 134l158 -133h-97l-59 48q-9 -7 -29.5 -24t-28.5 -25z" />
<glyph unicode="&#xfc;" horiz-adv-x="584" d="M50 345v64h143v-241q0 -43 26.5 -73.5t66.5 -30.5q42 0 74 30.5t32 67.5v183h-80v64h142v-345h80v-64h-142v37q-45 -37 -106 -37q-67 0 -111.5 49.5t-44.5 118.5v177h-80zM186 494q0 37 36 37q16 0 26 -10t10 -27q0 -16 -10 -25.5t-26 -9.5q-36 0 -36 35zM329 494 q0 17 10 27t26 10t26 -10t10 -27q0 -16 -10 -25.5t-26 -9.5t-26 9.5t-10 25.5z" />
<glyph unicode="&#xfd;" horiz-adv-x="632" d="M359 345v64h223v-64h-90q-218 -442 -222 -450h64v-63h-223v63h90l78 158q-10 20 -24.5 50.5t-45.5 95t-71 146.5h-88v64h222v-64h-64q18 -37 34.5 -71t37 -76t35.5 -72l109 219h-65zM351 583h105l-136 -124h-85z" />
<glyph unicode="&#xfe;" horiz-adv-x="569" d="M50 490v63h142v-198q61 54 131 54q80 0 138 -60t58 -144t-58 -144.5t-138 -60.5q-73 0 -131 53v-197h-142v63h80v571h-80zM323 345q-53 0 -92 -38.5t-39 -93.5v-16q0 -56 38.5 -94.5t92.5 -38.5q55 0 93.5 41.5t38.5 99.5t-38.5 99t-93.5 41z" />
<glyph unicode="&#xff;" horiz-adv-x="632" d="M359 345v64h223v-64h-90q-218 -442 -222 -450h64v-63h-223v63h90l78 158q-10 20 -24.5 50.5t-45.5 95t-71 146.5h-88v64h222v-64h-64q18 -37 34.5 -71t37 -76t35.5 -72l109 219h-65zM209 494q0 37 36 37q16 0 26 -10t10 -27q0 -16 -10 -25.5t-26 -9.5q-36 0 -36 35z M352 494q0 17 10 27t26 10t26 -10t10 -27q0 -16 -10 -25.5t-26 -9.5t-26 9.5t-10 25.5z" />
<glyph unicode="&#x131;" horiz-adv-x="322" d="M272 64v-64h-222v64h79v281h-79v64h142v-345h80zM125 492q0 36 35 36q17 0 27 -10t10 -26t-10 -25.5t-27 -9.5q-35 0 -35 35z" />
<glyph unicode="&#x141;" horiz-adv-x="562" d="M95 219l-45 46l95 97v272h-85v66h236v-66h-85v-207l123 124l42 -49l-165 -168v-268h234v95h67v-161h-452v66h85v203z" />
<glyph unicode="&#x142;" horiz-adv-x="411" d="M94 205l-44 47l90 89v257h-81v63h144v-256l114 114l44 -45l-158 -157v-253h80v-64h-224v64h81v188l-3 -3q-33 -33 -43 -44z" />
<glyph unicode="&#x152;" horiz-adv-x="1056" d="M950 271h-66v62h-168v-267h223v95h67v-161h-439v56q-82 -56 -182 -56q-141 0 -238 103.5t-97 252.5q0 146 96.5 245t238.5 99q102 0 182 -52v52h406v-161h-67v95h-190v-234h168v62h66v-191zM651 140q-29 -40 -72 -74h72v74zM651 634h-64q39 -33 64 -67v67zM117 356 q0 -120 78.5 -205t189.5 -85q110 0 188 85t78 205q0 117 -77.5 197.5t-188.5 80.5q-112 0 -190 -80.5t-78 -197.5z" />
<glyph unicode="&#x153;" horiz-adv-x="815" d="M691 145l50 -41q-34 -48 -79 -76t-92 -28q-49 0 -92.5 25t-70.5 66q-26 -43 -68.5 -67t-94.5 -24q-81 0 -137.5 59.5t-56.5 144.5t56.5 145t137.5 60q47 0 90.5 -26.5t71.5 -67.5q28 44 70.5 69t93.5 25q80 0 137.5 -69.5t57.5 -166.5h-323q11 -47 46.5 -78t81.5 -31 q69 0 121 81zM114 204q0 -58 38.5 -99t91.5 -41q55 0 93.5 41t38.5 99v8q-3 55 -41.5 94t-90.5 39q-53 0 -91.5 -41.5t-38.5 -99.5zM442 235h256q-11 47 -47 78.5t-81 31.5q-49 0 -85 -30.5t-43 -79.5z" />
<glyph unicode="&#x160;" horiz-adv-x="478" d="M116 4h-66v189h63q8 -56 44 -92t82 -36q52 0 87.5 35.5t35.5 87.5q0 56 -84 104q-107 63 -134 77q-94 57 -94 152q0 79 52 128.5t125 49.5q55 0 101 -22v17h66v-190h-66v87q-13 19 -41 30.5t-60 11.5q-47 0 -79 -31t-32 -81q0 -56 61 -93q22 -13 67.5 -40t67.5 -39 q116 -65 116 -161q0 -81 -53.5 -135t-135.5 -54q-70 0 -123 43v-38zM74 880h103l62 -51l62 51h101l-163 -140z" />
<glyph unicode="&#x161;" horiz-adv-x="415" d="M202 409q31 0 54 -8v8h64v-132h-64v53q-23 15 -54 15q-26 0 -44 -12t-18 -28q0 -26 39 -47q68 -36 78 -40l6 -3q26 -14 39.5 -23t25 -28.5t11.5 -46.5q0 -46 -39 -81.5t-98 -35.5q-32 0 -62 14v-14h-64v133h64q0 -29 19.5 -49t42.5 -20q32 0 52.5 16t20.5 37t-40 42 l-83 43q-76 40 -76 103q0 45 36 74.5t90 29.5zM50 587h100l59 -50l56 50h100l-157 -135z" />
<glyph unicode="&#x178;" horiz-adv-x="744" d="M146 634h-96v66h235v-66h-64q98 -150 148 -230q49 75 92.5 140.5t59.5 89.5h-63v66h236v-66h-100l-192 -297v-271h85v-66h-236v66h85v272q-14 21 -33 51t-61.5 96.5t-95.5 148.5zM263 785q0 37 36 37q16 0 26 -10t10 -27q0 -16 -10 -25.5t-26 -9.5q-36 0 -36 35zM406 785 q0 17 10 27t26 10t26 -10t10 -27q0 -16 -10 -25.5t-26 -9.5t-26 9.5t-10 25.5z" />
<glyph unicode="&#x17d;" horiz-adv-x="623" d="M137 541h-66v159h491v-46l-417 -588h363v93h65v-159h-523v46l416 588h-329v-93zM148 884h103l62 -51l63 51h100l-163 -140z" />
<glyph unicode="&#x17e;" horiz-adv-x="415" d="M126 256h-64v153h293v-44l-211 -301h155v89h63v-153h-307v44l210 301h-139v-89zM50 585h101l57 -49l57 49h100l-160 -134z" />
<glyph unicode="&#x192;" horiz-adv-x="322" d="M272 345h-80v-418q0 -46 -39 -81t-103 -35v63q35 0 57 16t22 37v418h-79v64h79v136q0 47 38.5 81.5t104.5 34.5v-63q-37 0 -58.5 -16t-21.5 -37v-136h80v-64z" />
<glyph unicode="&#x2c6;" horiz-adv-x="413" d="M147 566h-97l157 134l156 -133h-96l-59 49q-33 -28 -61 -50z" />
<glyph unicode="&#x2c7;" horiz-adv-x="414" d="M50 700h98l59 -48q42 35 58 48h99l-155 -134z" />
<glyph unicode="&#x2d8;" horiz-adv-x="290" d="M177 700h63q0 -51 -27 -86.5t-67 -35.5q-41 0 -68.5 35.5t-27.5 86.5h64q0 -24 9.5 -41t22.5 -17t22 17t9 41z" />
<glyph unicode="&#x2d9;" horiz-adv-x="171" d="M50 624q0 36 35 36q17 0 26.5 -10t9.5 -26t-10 -26t-26 -10t-25.5 10t-9.5 26z" />
<glyph unicode="&#x2da;" horiz-adv-x="290" d="M50 605q0 41 27 67.5t69 26.5q40 0 67 -26.5t27 -67.5t-27 -67.5t-67 -26.5q-42 0 -69 26.5t-27 67.5zM114 605q0 -13 9.5 -22t22.5 -9t22 9t9 22t-9 22.5t-22 9.5t-22.5 -9.5t-9.5 -22.5z" />
<glyph unicode="&#x2db;" horiz-adv-x="288" d="M174 -31h64q-7 -42 -32 -68.5t-60 -26.5q-42 0 -69 27t-27 68t36 68.5t87 27.5v-64q-25 0 -42 -9.5t-17 -22.5t9.5 -22.5t22.5 -9.5q20 0 28 32z" />
<glyph unicode="&#x2dc;" horiz-adv-x="386" d="M109 592l-59 21q36 81 91 81q34 0 61 -25q17 -13 30 -13q24 0 42 44l62 -18q-39 -89 -104 -89q-45 0 -69 24q-14 14 -22 14q-17 0 -32 -39z" />
<glyph unicode="&#x2dd;" horiz-adv-x="467" d="M313 701h104l-135 -125h-86zM166 701h105l-136 -125h-85z" />
<glyph unicode="&#x394;" horiz-adv-x="833" />
<glyph unicode="&#x3a9;" horiz-adv-x="833" />
<glyph unicode="&#x3bc;" horiz-adv-x="833" />
<glyph unicode="&#x3c0;" horiz-adv-x="294" />
<glyph unicode="&#x2013;" horiz-adv-x="477" d="M50 263v63h377v-63h-377z" />
<glyph unicode="&#x2014;" horiz-adv-x="622" d="M50 263v63h522v-63h-522z" />
<glyph unicode="&#x2018;" horiz-adv-x="190" d="M60 674l25 26h55l-23 -32q5 -10 5 -17q0 -16 -10 -26.5t-26 -10.5t-26 10.5t-10 26.5q0 13 10 23z" />
<glyph unicode="&#x2019;" horiz-adv-x="190" d="M129 639l-25 -25h-54l22 32q-4 7 -4 18q0 16 10 26t26 10t26 -10t10 -26q0 -12 -11 -25z" />
<glyph unicode="&#x201a;" horiz-adv-x="188" d="M138 35q0 -15 -12 -25l-24 -24h-52l20 32q-4 8 -4 17q0 16 10 26t26 10t26 -10t10 -26z" />
<glyph unicode="&#x201c;" horiz-adv-x="283" d="M61 675l25 25h51l-19 -32q5 -10 5 -17q0 -16 -10.5 -26.5t-26.5 -10.5t-26 10.5t-10 26.5q0 13 11 24zM155 675l25 25h53l-22 -31q4 -7 4 -18q0 -16 -9.5 -26.5t-25.5 -10.5t-26 10.5t-10 26.5q0 14 11 24z" />
<glyph unicode="&#x201d;" horiz-adv-x="283" d="M222 640l-25 -25h-51l19 32q-5 10 -5 17q0 16 10.5 26.5t26.5 10.5t26 -10.5t10 -26.5q0 -13 -11 -24zM128 640l-25 -25h-53l22 31q-4 7 -4 18q0 16 9.5 26.5t25.5 10.5t26 -10.5t10 -26.5q0 -14 -11 -24z" />
<glyph unicode="&#x201e;" horiz-adv-x="283" d="M222 2l-25 -25h-51l19 32q-5 10 -5 17q0 16 10.5 26.5t26.5 10.5t26 -10.5t10 -26.5q0 -13 -11 -24zM128 2l-25 -25h-53l22 31q-4 7 -4 18q0 16 9.5 26.5t25.5 10.5t26 -10.5t10 -26.5q0 -14 -11 -24z" />
<glyph unicode="&#x2020;" horiz-adv-x="372" d="M50 323v63h106v179h63v-179h103v-63h-103v-419h-63v419h-106z" />
<glyph unicode="&#x2021;" horiz-adv-x="372" d="M50 83v63h106v177h-106v63h106v179h63v-179h103v-63h-103v-177h103v-63h-103v-179h-63v179h-106z" />
<glyph unicode="&#x2022;" horiz-adv-x="332" d="M50 298q0 47 34 82.5t80 35.5q47 0 82.5 -35.5t35.5 -82.5q0 -46 -35.5 -80.5t-82.5 -34.5q-46 0 -80 34t-34 81z" />
<glyph unicode="&#x2026;" horiz-adv-x="463" d="M50 36q0 16 10.5 26t26.5 10q17 0 27 -10t10 -26t-10 -26t-27 -10q-16 0 -26.5 10t-10.5 26zM196 36q0 17 10 26.5t27 9.5q16 0 25.5 -10t9.5 -26t-9.5 -26t-25.5 -10q-17 0 -27 9.5t-10 26.5zM341 36q0 16 9.5 26t26.5 10q16 0 26 -10t10 -26t-10 -26t-26 -10 q-17 0 -26.5 10t-9.5 26z" />
<glyph unicode="&#x2030;" horiz-adv-x="976" d="M492 661h75l-401 -661h-74zM50 505q0 65 43 110.5t105 45.5q61 0 104.5 -45.5t43.5 -110.5t-43.5 -110.5t-104.5 -45.5q-62 0 -105 45.5t-43 110.5zM112 505q0 -38 25.5 -65t60.5 -27t60 27t25 65t-25 65.5t-60 27.5t-60.5 -27.5t-25.5 -65.5zM309 155q0 66 43 111.5 t106 45.5q61 0 105 -46t44 -111q0 -64 -44.5 -109.5t-104.5 -45.5q-63 0 -106 45t-43 110zM372 155q0 -38 25 -64.5t61 -26.5q35 0 60 26.5t25 64.5q0 39 -25 66.5t-60 27.5q-36 0 -61 -27.5t-25 -66.5zM629 155q0 66 42.5 111.5t105.5 45.5q61 0 105 -45.5t44 -111.5 q0 -64 -44 -109.5t-105 -45.5q-63 0 -105.5 45t-42.5 110zM692 155q0 -38 25 -64.5t60 -26.5q36 0 61 26.5t25 64.5q0 39 -25 66.5t-61 27.5q-35 0 -60 -27.5t-25 -66.5z" />
<glyph unicode="&#x2039;" horiz-adv-x="365" d="M315 89l-42 -48l-223 213l223 211l42 -46l-176 -166z" />
<glyph unicode="&#x203a;" horiz-adv-x="366" d="M90 39l-28 48q146 147 166 167l-178 165l42 46l224 -211z" />
<glyph unicode="&#x2044;" horiz-adv-x="466" d="M349 673h67l-299 -673h-67z" />
<glyph unicode="&#x20ac;" horiz-adv-x="567" d="M467 132l50 -40q-87 -93 -176 -93q-87 0 -154 68.5t-89 176.5h-48v63h43v55h-43v64h51q24 103 90 168.5t150 65.5q89 0 175 -94l-47 -41q-66 72 -128 72q-56 0 -103 -48t-69 -123h294v-64h-306q-1 -11 -1 -32v-23h307v-63h-296q17 -81 64.5 -131t109.5 -50q63 0 126 69z " />
<glyph unicode="&#x2122;" horiz-adv-x="906" d="M601 291h-44l-110 263l-32 -199h44v-64h-157v64h45q2 11 20.5 119t27.5 165h-46v62h102l128 -295q16 39 58 139t66 156h103v-62h-46q7 -47 23 -140.5t24 -143.5h49v-64h-159v64h46q-14 80 -23.5 129t-12.5 66zM327 589h-64v50h-46v-284h51v-64h-159v64h45v284h-40v-50 h-64v112h277v-112z" />
<glyph unicode="&#x2202;" horiz-adv-x="833" />
<glyph unicode="&#x220f;" horiz-adv-x="833" />
<glyph unicode="&#x2211;" horiz-adv-x="833" />
<glyph unicode="&#x2212;" horiz-adv-x="513" d="M50 263v63h413v-63h-413z" />
<glyph unicode="&#x221a;" horiz-adv-x="833" />
<glyph unicode="&#x221e;" horiz-adv-x="833" />
<glyph unicode="&#x222b;" horiz-adv-x="833" />
<glyph unicode="&#x2248;" horiz-adv-x="833" />
<glyph unicode="&#x2260;" horiz-adv-x="513" d="M50 244v63h156q8 19 25 55h-181v64h210q55 133 105 235h66l-103 -235h135v-64h-163q-7 -14 -12 -24.5t-7 -14t-4 -7.5t-4 -9h190v-63h-216q-10 -23 -42.5 -95t-66.5 -149h-67l108 244h-129z" />
<glyph unicode="&#x2264;" horiz-adv-x="490" d="M438 165l-36 -47l-352 219l355 222l23 -51l-264 -169zM51 0v64h389v-64h-389z" />
<glyph unicode="&#x2265;" horiz-adv-x="490" d="M88 118l-36 47q194 124 274 174l-264 169l23 51l355 -222zM439 64v-64h-389v64h389z" />
<glyph unicode="&#x25ca;" horiz-adv-x="833" />
<glyph unicode="&#xe000;" horiz-adv-x="410" d="M0 410h410v-410h-410v410z" />
<glyph unicode="&#xfb01;" horiz-adv-x="491" d="M441 64v-64h-391v64h80v281h-80v64h80v136q0 47 38 81.5t104 34.5v-63q-36 0 -58 -16t-22 -37v-136h169v-345h80zM297 64v281h-105v-281h105zM293 452q0 16 9.5 26t26.5 10q16 0 26 -10t10 -26t-10 -25.5t-26 -9.5q-36 0 -36 35z" />
<glyph unicode="&#xfb02;" horiz-adv-x="491" d="M441 64v-64h-391v64h80v281h-80v64h80v136q0 46 32 81t82 35h117v-597h80zM272 409v-64h-80v-281h105v534h-53q-24 0 -38 -16t-14 -37v-136h80z" />
</font>
</defs>
</svg>
