<?xml version="1.0" standalone="no"?>
<!DOCTYPE svg PUBLIC "-//W3C//DTD SVG 1.1//EN" "http://www.w3.org/Graphics/SVG/1.1/DTD/svg11.dtd" >
<svg xmlns="http://www.w3.org/2000/svg">
<metadata></metadata>
<defs>
<font id="teletex_lightregular" horiz-adv-x="487" >
<font-face units-per-em="1000" ascent="750" descent="-250" />
<missing-glyph horiz-adv-x="300" />
<glyph unicode=" "  horiz-adv-x="300" />
<glyph unicode="&#x09;" horiz-adv-x="300" />
<glyph unicode="&#xa0;" horiz-adv-x="300" />
<glyph unicode="!" horiz-adv-x="138" d="M54 700h29v-600h-29v600zM50 19q0 19 19 19t19 -19t-19 -19t-19 19z" />
<glyph unicode="&#x22;" horiz-adv-x="218" d="M50 700h29v-210h-29v210zM139 700h29v-210h-29v210z" />
<glyph unicode="#" horiz-adv-x="554" d="M388 601h29l-34 -159h121v-28h-126l-44 -210h170v-29h-177l-37 -175h-30l37 175h-99l-37 -175h-29l37 175h-119v29h125l44 210h-169v28h175q2 11 15 69.5t19 89.5h29l-33 -159h99q5 26 17 79.5t17 79.5zM249 414l-44 -210h99l44 210h-99z" />
<glyph unicode="$" horiz-adv-x="452" d="M211 734h29v-50q61 -8 98 -41v38h29v-159h-29v78q-31 45 -98 55v-299q9 -6 26.5 -15.5t25.5 -14.5q110 -62 110 -152q0 -72 -45.5 -121t-116.5 -54v-47h-29v47q-87 8 -132 75v-73h-29v160h28q7 -56 45 -92.5t88 -40.5v310l-72 43q-89 51 -89 140q0 73 47 118t114 46v49z M374 174q0 73 -98 127l-36 20v-293q57 5 95.5 46t38.5 100zM79 521q0 -72 73 -115l59 -34v285q-55 -2 -93.5 -39t-38.5 -97z" />
<glyph unicode="%" horiz-adv-x="672" d="M530 686h33l-417 -686h-33zM50 535q0 63 41.5 107t101.5 44q59 0 101 -44t42 -107t-42 -107t-101 -44q-60 0 -101.5 44t-41.5 107zM79 535q0 -50 33.5 -86t80.5 -36t80.5 36t33.5 86q0 51 -33.5 87t-80.5 36t-80.5 -36t-33.5 -87zM336 151q0 63 41.5 107t101.5 44 q59 0 101 -44t42 -107t-42 -107t-101 -44q-60 0 -101.5 44t-41.5 107zM365 151q0 -50 33.5 -86t80.5 -36t80.5 36t33.5 86t-33.5 86.5t-80.5 36.5t-80.5 -36.5t-33.5 -86.5z" />
<glyph unicode="&#x26;" horiz-adv-x="578" d="M528 29v-29h-109l-38 63q-58 -63 -136 -63q-83 0 -139 56t-56 139q0 53 27 100t71 72q6 4 20 10.5t22 12.5q-47 79 -50 88q-22 42 -22 69q0 58 41 98.5t98 40.5q58 0 98.5 -40.5t40.5 -98.5q0 -35 -21.5 -65t-53.5 -49l-92 -53l154 -263q19 43 19 93h126v-29h-98 q-5 -51 -30 -92l36 -60h92zM78 195q0 -70 48.5 -118t118.5 -48q73 0 120 63q-35 60 -162 273l-42 -23q-38 -21 -60.5 -61t-22.5 -86zM215 405l92 53q60 35 60 89q0 46 -32 78.5t-78 32.5q-45 0 -78 -32.5t-33 -78.5q0 -22 21 -60z" />
<glyph unicode="'" horiz-adv-x="129" d="M50 700h29v-210h-29v210z" />
<glyph unicode="(" horiz-adv-x="325" d="M264 617l11 -27q-87 -39 -142 -137.5t-55 -222.5q0 -122 55 -219.5t142 -137.5l-10 -26q-96 43 -155.5 148t-59.5 235q0 132 59.5 238t154.5 149z" />
<glyph unicode=")" horiz-adv-x="326" d="M50 590l10 27q96 -43 156 -149t60 -238q0 -130 -60 -235t-156 -148l-9 26q87 40 141.5 137.5t54.5 219.5q0 124 -55 222t-142 138z" />
<glyph unicode="*" horiz-adv-x="436" d="M327 575l20 -20l-95 -95h134v-28h-134l95 -95l-20 -20l-95 95v-134h-28v134l-95 -95l-20 20l95 95h-134v28h134l-95 95l20 20l95 -94v133h28v-133z" />
<glyph unicode="+" horiz-adv-x="474" d="M251 116h-29v174h-172v28h172v173h29v-173h173v-28h-173v-174z" />
<glyph unicode="," horiz-adv-x="140" d="M84 5l-21 -21h-13l12 17q-10 7 -10 17q0 19 19 19t19 -19q0 -7 -6 -13z" />
<glyph unicode="-" horiz-adv-x="358" d="M50 290v28h258v-28h-258z" />
<glyph unicode="." horiz-adv-x="138" d="M50 19q0 19 19 19t19 -19t-19 -19t-19 19z" />
<glyph unicode="/" horiz-adv-x="435" d="M354 686h31l-304 -686h-31z" />
<glyph unicode="0" horiz-adv-x="606" d="M50 350q0 146 73.5 248t179.5 102t179.5 -102t73.5 -248q0 -145 -74 -247.5t-179 -102.5t-179 102.5t-74 247.5zM79 350q0 -132 65.5 -226t158.5 -94t159 94t66 226q0 133 -66 227t-159 94t-158.5 -94t-65.5 -227z" />
<glyph unicode="1" horiz-adv-x="311" d="M261 29v-29h-204v29h88v634l-77 -48l-18 20l103 65h21v-671h87z" />
<glyph unicode="2" horiz-adv-x="508" d="M152 437l-24 -13q-27 47 -27 94q0 76 52 129.5t126 53.5t126.5 -53.5t52.5 -129.5q0 -67 -48 -124l-299 -364h319v99h28v-129h-408l337 411q43 54 43 107q0 64 -44.5 109t-106.5 45t-106 -45t-44 -109q0 -33 23 -81z" />
<glyph unicode="3" horiz-adv-x="474" d="M50 119l24 14q22 -46 63.5 -74.5t91.5 -28.5q68 0 117.5 49.5t49.5 119.5q0 71 -49.5 121t-118.5 50h-67v30h73q52 0 89.5 40t37.5 95q0 56 -39.5 96t-93.5 40q-45 0 -81 -30t-49 -76l-30 2q17 58 61.5 95.5t98.5 37.5q67 0 114 -48t47 -117q0 -49 -24.5 -88.5 t-65.5 -60.5q56 -22 90.5 -72.5t34.5 -114.5q0 -83 -56.5 -141t-138.5 -58q-56 0 -104.5 33t-74.5 86z" />
<glyph unicode="4" horiz-adv-x="460" d="M410 247v-28h-97v-190h87v-29h-204v29h88v190h-234l216 481l27 -9l-200 -444h191v188h29v-188h97z" />
<glyph unicode="5" horiz-adv-x="484" d="M404 574h-28v97h-216v-254q32 8 61 8q89 0 151 -61.5t62 -150.5t-62 -151t-151 -62q-103 0 -171 88l21 19q62 -78 150 -78q76 0 130 54t54 130t-54 130t-130 54q-32 0 -89 -22v324h272v-125z" />
<glyph unicode="6" horiz-adv-x="525" d="M387 700l22 -18l-225 -272q42 15 85 15q84 0 145 -59t61 -148q0 -90 -61.5 -154t-144.5 -64q-92 0 -155.5 63.5t-63.5 154.5q0 77 50 136zM79 218q0 -79 55.5 -134t134.5 -55q71 0 124.5 55.5t53.5 133.5q0 77 -53 128t-125 51q-80 0 -135 -50.5t-55 -128.5z" />
<glyph unicode="7" horiz-adv-x="557" d="M78 575h-28v125h457l-389 -703l-25 13l367 662h-382v-97z" />
<glyph unicode="8" horiz-adv-x="492" d="M86 535q0 69 47 117t114 48q68 0 115 -48t47 -117q0 -50 -24.5 -89.5t-65.5 -59.5q55 -22 89 -73.5t34 -113.5q0 -83 -57 -141t-139 -58q-81 0 -138.5 58.5t-57.5 140.5q0 64 35 114.5t91 72.5q-41 21 -65.5 60.5t-24.5 88.5zM78 199q0 -70 49.5 -119.5t118.5 -49.5 t118 49.5t49 119.5q0 71 -49 121t-118 50t-118.5 -50t-49.5 -121zM115 535q0 -55 36.5 -94t89.5 -41h5q56 0 95.5 39.5t39.5 95.5t-39.5 96t-94.5 40t-93.5 -40t-38.5 -96z" />
<glyph unicode="9" horiz-adv-x="525" d="M139 0l-22 18l225 273q-42 -16 -85 -16q-84 0 -145.5 59t-61.5 148q0 90 62 154t145 64q91 0 154.5 -63t63.5 -155q0 -75 -49 -135zM447 482q0 79 -55.5 134.5t-134.5 55.5q-71 0 -124.5 -56t-53.5 -134q0 -77 53 -127.5t125 -50.5q80 0 135 50t55 128z" />
<glyph unicode=":" horiz-adv-x="138" d="M50 19q0 19 19 19t19 -19t-19 -19t-19 19zM50 337q0 19 19 19t19 -19q0 -20 -19 -20t-19 20z" />
<glyph unicode=";" horiz-adv-x="140" d="M52 337q0 19 19 19t19 -19q0 -20 -19 -20t-19 20zM63 -16l21 21q6 6 6 13q0 19 -19 19t-19 -19q0 -10 10 -17l-12 -17h13z" />
<glyph unicode="&#x3c;" horiz-adv-x="461" d="M411 114l-17 -21l-344 215l344 214l9 -20l-301 -193z" />
<glyph unicode="=" horiz-adv-x="513" d="M50 399v29h413v-29h-413zM50 269v28h413v-28h-413z" />
<glyph unicode="&#x3e;" horiz-adv-x="462" d="M67 92l-9 20q255 168 301 197l-309 193l18 20l344 -214z" />
<glyph unicode="?" horiz-adv-x="484" d="M160 269v-182h-28v225q53 -22 89 -22q76 0 130 54t54 130t-54 130t-130 54q-87 0 -150 -78l-21 19q69 87 171 87q89 0 151 -61.5t62 -150.5t-62 -151t-151 -62q-34 0 -61 8zM127 19q0 19 19 19t19 -19t-19 -19t-19 19z" />
<glyph unicode="@" horiz-adv-x="606" d="M164 297q0 47 37 80.5t91 33.5q63 0 101 -43v38q0 37 -26.5 64t-63.5 27q-31 0 -55.5 -20.5t-38.5 -55.5l-28 10q38 94 122 94q49 0 84 -35t35 -84v-195h84q22 71 22 132q0 130 -66 222.5t-159 92.5t-158.5 -92t-65.5 -223q0 -130 65.5 -222t158.5 -92q58 0 111 41 l20 -20q-64 -50 -131 -50q-106 0 -179.5 100t-73.5 243t73.5 243t179.5 100t179.5 -100t73.5 -243q0 -83 -29 -161h-134v43q-38 -43 -101 -43q-54 0 -91 33.5t-37 81.5zM192 297q0 -36 29.5 -61t70.5 -25t70.5 25t30.5 61q0 35 -29.5 60t-71.5 25q-41 0 -70.5 -25t-29.5 -60 z" />
<glyph unicode="A" horiz-adv-x="832" d="M405 700h19l282 -671h76v-29h-214v29h106q-12 28 -38.5 90.5t-40.5 96.5h-352q-13 -33 -76 -187h97v-29h-214v29h85q29 73 124.5 308.5t145.5 362.5zM415 645l-160 -400h328q-33 79 -90 214.5t-78 185.5z" />
<glyph unicode="B" horiz-adv-x="535" d="M50 671v29h233q76 0 127.5 -49.5t51.5 -118.5q0 -54 -28 -97t-73 -66q54 -21 89 -70.5t35 -107.5q0 -77 -57 -134t-133 -57h-245v29h89v642h-89zM295 353h-127v-324h127q64 0 112.5 48.5t48.5 113.5t-48.5 113.5t-112.5 48.5zM433 532q0 57 -43.5 98t-106.5 41h-115v-289 h115q64 0 107 43t43 107z" />
<glyph unicode="C" horiz-adv-x="685" d="M614 138l21 -21q-117 -117 -253 -117q-139 0 -235.5 103.5t-96.5 252.5q0 146 96 245t236 99q127 0 221 -86v86h29v-133h-23q-98 104 -227 104q-127 0 -215 -91t-88 -224q0 -135 88.5 -231t214.5 -96q121 0 232 109z" />
<glyph unicode="D" horiz-adv-x="677" d="M168 29h127q126 0 214.5 96t88.5 231q0 133 -88 224t-215 91h-127v-642zM139 29v642h-89v29h245q139 0 235.5 -99t96.5 -245q0 -149 -96.5 -252.5t-235.5 -103.5h-245v29h89z" />
<glyph unicode="E" horiz-adv-x="524" d="M416 287h-29v66h-218v-324h276v101h29v-130h-424v29h90v642h-90v29h389v-130h-29v101h-241v-289h218v66h29v-161z" />
<glyph unicode="F" horiz-adv-x="489" d="M50 0v29h90v642h-90v29h389v-130h-29v101h-241v-289h218v66h29v-161h-29v66h-218v-324h89v-29h-208z" />
<glyph unicode="G" horiz-adv-x="807" d="M526 282v29h231v-29h-44q-22 -119 -115 -200.5t-215 -81.5q-139 0 -236 103.5t-97 252.5q0 146 96.5 245t236.5 99q135 0 232 -87v87h30v-133h-24q-47 51 -110 77.5t-128 26.5q-127 0 -215 -91t-88 -224q0 -135 88.5 -231t214.5 -96q107 0 190 74t109 179h-156z" />
<glyph unicode="H" horiz-adv-x="791" d="M533 671v29h208v-29h-90v-642h90v-29h-208v29h89v324h-453v-324h89v-29h-208v29h90v642h-90v29h208v-29h-89v-289h453v289h-89z" />
<glyph unicode="I" horiz-adv-x="308" d="M50 0v29h89v642h-89v29h208v-29h-89v-642h89v-29h-208z" />
<glyph unicode="J" horiz-adv-x="588" d="M50 153v29h158v-29h-64q7 -51 46 -87.5t91 -36.5q56 0 97 41t41 97v504h-89v29h208v-29h-89v-504q0 -67 -50 -117t-118 -50q-64 0 -112.5 45t-54.5 108h-64z" />
<glyph unicode="K" horiz-adv-x="650" d="M50 671v29h208v-29h-89v-270q54 52 152 147.5t126 122.5h-55v29h208v-29h-110l-315 -304l326 -338h99v-29h-208v29h70q-243 250 -293 302v-302h89v-29h-208v29h90v642h-90z" />
<glyph unicode="L" horiz-adv-x="536" d="M50 0v29h89v642h-89v29h208v-29h-90v-642h289v101h29v-130h-436z" />
<glyph unicode="M" horiz-adv-x="1084" d="M552 0h-20l-266 631q-17 -103 -48 -304.5t-46 -297.5h98v-29h-220v29h91l102 642h-98v29h125l272 -647l273 647h125v-29h-98q17 -108 51 -321t50 -321h91v-29h-219v29h98l-94 602z" />
<glyph unicode="N" horiz-adv-x="860" d="M50 0v29h89v642h-89v29h111l531 -648v619h-90v29h208v-29h-89v-671h-25l-528 645v-616h90v-29h-208z" />
<glyph unicode="O" horiz-adv-x="764" d="M79 356q0 -135 89 -231t215 -96q125 0 213.5 96t88.5 231q0 133 -88 224t-214 91q-127 0 -215.5 -90.5t-88.5 -224.5zM50 356q0 146 96.5 245t236.5 99q139 0 235 -99t96 -245q0 -148 -96.5 -252t-234.5 -104q-139 0 -236 103.5t-97 252.5z" />
<glyph unicode="P" horiz-adv-x="513" d="M50 0v29h90v642h-90v29h245q68 0 118 -50t50 -118q0 -77 -51 -128t-128 -51h-115v-324h89v-29h-208zM169 382h115q64 0 106.5 43t42.5 107q0 56 -41 97.5t-97 41.5h-126v-289z" />
<glyph unicode="Q" horiz-adv-x="767" d="M717 18l-21 -21l-93 92q-91 -89 -220 -89q-139 0 -236 103.5t-97 252.5q0 146 96.5 245t236.5 99q139 0 235 -99t96 -245q0 -144 -90 -245zM79 356q0 -135 89 -231t215 -96q118 0 199 81l-76 77l22 21l75 -77q82 95 82 225q0 133 -88 224t-214 91q-127 0 -215.5 -91 t-88.5 -224z" />
<glyph unicode="R" horiz-adv-x="625" d="M50 0v29h90v642h-90v29h245q68 0 117.5 -50t49.5 -118q0 -75 -48 -126.5t-116 -52.5l195 -324h82v-29h-207v29h91q-184 304 -196 324h-94v-324h89v-29h-208zM169 382h126q57 0 97.5 43.5t40.5 106.5q0 56 -41 97.5t-97 41.5h-126v-289z" />
<glyph unicode="S" horiz-adv-x="459" d="M79 4h-29v160h28q9 -59 52 -97.5t99 -38.5q64 0 107.5 43t43.5 107q0 70 -100 129l-140 82q-90 53 -90 142q0 75 49 121.5t118 46.5q83 0 127 -44v39h29v-161h-29v78q-16 28 -50.5 43.5t-76.5 15.5q-57 0 -97.5 -38.5t-40.5 -100.5q0 -75 75 -117l142 -82 q113 -67 113 -154q0 -77 -51.5 -128t-128.5 -51q-47 0 -86.5 20.5t-63.5 57.5v-73z" />
<glyph unicode="T" horiz-adv-x="540" d="M490 570h-29v101h-182v-642h89v-29h-208v29h90v642h-171v-101h-29v130h440v-130z" />
<glyph unicode="U" horiz-adv-x="767" d="M717 700v-29h-89v-421q0 -104 -73 -177t-177 -73q-102 0 -170 72.5t-68 177.5v421h-90v29h208v-29h-89v-421q0 -93 59.5 -157t149.5 -64q91 0 156 65t65 156v421h-90v29h208z" />
<glyph unicode="V" horiz-adv-x="882" d="M456 0h-19l-294 671h-93v29h208v-29h-83l272 -619l260 619h-81v29h206v-29h-93q-51 -124 -148.5 -353.5t-134.5 -317.5z" />
<glyph unicode="W" horiz-adv-x="1061" d="M731 0h-23l-177 613q-119 -406 -177 -613h-24l-187 671h-93v29h208v-29h-84q34 -123 94.5 -338.5t73.5 -261.5l177 612h23l177 -613l168 601h-84v29h208v-29h-93z" />
<glyph unicode="X" horiz-adv-x="740" d="M690 29v-29h-208v29h70l-185 291l-191 -291h82v-29h-208v29h92l208 316l-208 326h-92v29h208v-29h-82l191 -300l196 300h-81v29h208v-29h-94q-27 -42 -213 -326l202 -316h105z" />
<glyph unicode="Y" horiz-adv-x="740" d="M142 671h-92v29h208v-29h-82l191 -300l196 300h-81v29h208v-29h-94l-214 -330v-312h89v-29h-208v29h89v313z" />
<glyph unicode="Z" horiz-adv-x="613" d="M101 572h-30v128h479v-22l-459 -649h443v99h29v-128h-513v22l459 649h-408v-99z" />
<glyph unicode="[" horiz-adv-x="217" d="M50 -117v730h117v-29h-88v-673h88v-28h-117z" />
<glyph unicode="\" horiz-adv-x="442" d="M50 700h31l311 -700h-31z" />
<glyph unicode="]" horiz-adv-x="217" d="M167 613v-730h-117v28h88v673h-88v29h117z" />
<glyph unicode="^" horiz-adv-x="532" d="M482 391l-22 -11l-194 263l-195 -270l-21 19l216 300z" />
<glyph unicode="_" horiz-adv-x="629" d="M50 -197v28h529v-28h-529z" />
<glyph unicode="`" horiz-adv-x="244" d="M50 700h55l89 -96h-39z" />
<glyph unicode="a" horiz-adv-x="496" d="M50 135q0 57 45 96.5t108 39.5q79 0 126 -57v54q0 46 -32.5 79t-79.5 33q-38 0 -69.5 -24t-47.5 -67l-27 9q20 53 57.5 82t86.5 29q59 0 100 -41.5t41 -99.5v-239h88v-29h-117v56q-44 -56 -126 -56q-63 0 -108 39.5t-45 95.5zM78 135q0 -44 37 -75t88 -31q50 0 87 29.5 t39 72.5v9q-2 42 -39 72t-87 30q-51 0 -88 -31.5t-37 -75.5z" />
<glyph unicode="b" horiz-adv-x="575" d="M50 0v29h88v629h-88v28h116v-374q27 44 70.5 70.5t94.5 26.5q80 0 137 -60t57 -145q0 -84 -57 -144t-137 -60q-51 0 -94.5 25.5t-70.5 69.5v-95h-116zM331 29q68 0 116.5 51.5t48.5 123.5q0 73 -48.5 124.5t-116.5 51.5q-66 0 -114.5 -50t-50.5 -118v-16q0 -69 49 -118 t116 -49z" />
<glyph unicode="c" horiz-adv-x="454" d="M382 108l22 -18q-29 -42 -71 -66t-89 -24q-81 0 -137.5 59.5t-56.5 144.5t56.5 145t137.5 60q70 0 130 -55v51h28v-100h-24q-59 75 -134 75q-68 0 -116.5 -51.5t-48.5 -124.5q0 -72 48.5 -123.5t116.5 -51.5q85 0 138 79z" />
<glyph unicode="d" horiz-adv-x="575" d="M525 29v-29h-117v95q-26 -44 -69.5 -69.5t-95.5 -25.5q-79 0 -136 60t-57 144t57 144.5t136 60.5q52 0 95.5 -26.5t69.5 -70.5v374h117v-28h-88v-629h88zM243 29q68 0 116.5 49t48.5 118v16q-2 68 -50 118t-115 50q-68 0 -116.5 -51.5t-48.5 -124.5q0 -72 48.5 -123.5 t116.5 -51.5z" />
<glyph unicode="e" d="M382 108l22 -18q-64 -90 -161 -90q-80 0 -136.5 59.5t-56.5 144.5t56.5 145t136.5 60t137 -64t57 -155h-359q4 -68 52 -114.5t113 -46.5q84 0 139 79zM78 218h330q-4 68 -52.5 115t-112.5 47q-65 0 -112.5 -47t-52.5 -115z" />
<glyph unicode="f" horiz-adv-x="304" d="M254 409v-29h-88v-351h88v-29h-204v29h87v351h-87v29h87v171q0 42 32 74t85 32v-28q-40 0 -64 -23.5t-24 -54.5v-171h88z" />
<glyph unicode="g" horiz-adv-x="575" d="M50 199q0 85 56.5 145t136.5 60q50 0 94 -27t71 -70v97h117v-28h-88v-378q0 -86 -60 -148.5t-151 -62.5q-45 0 -90 26t-76 68l21 19q27 -37 67 -60.5t78 -23.5q78 0 130 54t52 128v94q-26 -45 -69.5 -71t-95.5 -26q-80 0 -136.5 59.5t-56.5 144.5zM78 199 q0 -72 48.5 -123.5t116.5 -51.5t116.5 51.5t48.5 123.5q0 73 -48.5 125t-116.5 52t-116.5 -52t-48.5 -125z" />
<glyph unicode="h" horiz-adv-x="592" d="M542 29v-29h-204v29h88v216q0 56 -35.5 95.5t-88.5 39.5t-94.5 -40t-41.5 -89v-222h88v-29h-204v29h88v629h-88v28h116v-350q51 73 136 73q66 0 109 -48t43 -116v-216h88z" />
<glyph unicode="i" horiz-adv-x="304" d="M254 29v-29h-204v29h87v351h-87v29h116v-380h88zM133 477q0 19 19 19t19 -19t-19 -19t-19 19z" />
<glyph unicode="j" horiz-adv-x="221" d="M50 380v29h116v-499q0 -51 -32 -84.5t-84 -33.5v29q39 0 63 25.5t24 63.5v470h-87zM132 477q0 19 20 19q19 0 19 -19t-19 -19q-20 0 -20 19z" />
<glyph unicode="k" horiz-adv-x="530" d="M414 409v-29h-91l-147 -146l216 -205h88v-29h-204v29h74q-20 19 -57 54t-67.5 64t-58.5 56v-174h87v-29h-204v29h88v629h-88v28h117v-420l114 114h-71v29h204z" />
<glyph unicode="l" horiz-adv-x="304" d="M254 29v-29h-204v29h87v629h-87v28h116v-657h88z" />
<glyph unicode="m" horiz-adv-x="811" d="M761 29v-29h-204v29h88v239q0 46 -33 79t-80 33q-46 0 -79 -33t-33 -79v-239h87v-29h-204v29h88v244q0 44 -33.5 75.5t-78.5 31.5t-79 -33t-34 -74v-244h88v-29h-204v29h87v351h-87v29h116v-55q42 55 113 55q41 0 75 -21.5t51 -57.5q17 36 51 57.5t76 21.5 q58 0 99.5 -41.5t41.5 -99.5v-239h88z" />
<glyph unicode="n" horiz-adv-x="592" d="M542 29v-29h-204v29h88v216q0 56 -35.5 95.5t-88.5 39.5t-94.5 -40t-41.5 -89v-222h88v-29h-204v29h88v351h-88v29h116v-73q51 73 136 73q66 0 109 -48t43 -116v-216h88z" />
<glyph unicode="o" d="M50 204q0 85 56.5 145t136.5 60t137 -60t57 -145q0 -84 -57 -144t-137 -60t-136.5 59.5t-56.5 144.5zM78 204q0 -72 48.5 -123.5t116.5 -51.5t116.5 51.5t48.5 123.5q0 73 -48.5 124.5t-116.5 51.5t-116.5 -51.5t-48.5 -124.5z" />
<glyph unicode="p" horiz-adv-x="575" d="M254 -179v-29h-204v29h88v559h-88v29h116v-97q27 44 70.5 70.5t94.5 26.5q81 0 137.5 -60t56.5 -145t-56.5 -144.5t-137.5 -59.5q-51 0 -94.5 25.5t-70.5 69.5v-274h88zM166 212v-8q0 -72 48.5 -123.5t116.5 -51.5t116.5 51.5t48.5 123.5q0 73 -48.5 124.5t-116.5 51.5 q-66 0 -114 -49.5t-51 -118.5z" />
<glyph unicode="q" horiz-adv-x="575" d="M321 -208v29h87v274q-26 -44 -69.5 -69.5t-95.5 -25.5q-80 0 -136.5 59.5t-56.5 144.5t56.5 145t136.5 60q52 0 95.5 -26.5t69.5 -70.5v97h117v-29h-88v-559h88v-29h-204zM408 204v8q-2 69 -50.5 118.5t-114.5 49.5q-68 0 -116.5 -51.5t-48.5 -124.5q0 -72 48.5 -123.5 t116.5 -51.5t116.5 51.5t48.5 123.5z" />
<glyph unicode="r" horiz-adv-x="390" d="M254 29v-29h-204v29h87v351h-87v29h116v-33q30 33 78 33q30 0 57.5 -21t38.5 -54l-27 -10q-8 25 -27.5 40.5t-41.5 15.5q-35 0 -56.5 -22.5t-21.5 -52.5v-276h88z" />
<glyph unicode="s" horiz-adv-x="348" d="M248 388v21h29v-104h-29v48q-32 27 -80 27q-37 0 -63 -18.5t-26 -46.5q0 -43 54 -70l87 -44q29 -15 41.5 -23t24.5 -26t12 -43q0 -43 -37 -76t-93 -33q-51 0 -89 35v-35h-29v105h29q0 -31 28.5 -53.5t60.5 -22.5q43 0 72 24.5t29 55.5q0 24 -15 37.5t-46 29.5l-86 44 q-72 36 -72 95q0 40 34 67t84 27q48 0 80 -21z" />
<glyph unicode="t" horiz-adv-x="304" d="M137 531h29v-122h88v-29h-88v-273q0 -29 27.5 -53.5t60.5 -24.5v-29q-45 0 -81 33t-36 74v273h-87v29h87v122z" />
<glyph unicode="u" horiz-adv-x="592" d="M50 380v29h116v-245q0 -56 35.5 -95.5t88.5 -39.5t94.5 40t41.5 89v222h-88v29h116v-380h88v-29h-116v72q-23 -32 -59.5 -52t-76.5 -20q-66 0 -109 48t-43 116v216h-88z" />
<glyph unicode="v" horiz-adv-x="668" d="M343 0h-17l-185 380h-91v29h204v-29h-81q24 -49 77 -158t84 -173q108 220 161 331h-81v29h204v-29h-90q-27 -57 -90 -185t-95 -195z" />
<glyph unicode="w" horiz-adv-x="807" d="M390 386h27q33 -97 60.5 -174.5t38 -107t14.5 -42.5q19 59 54.5 165t51.5 153h-83v29h204v-29h-89q-18 -55 -61.5 -184t-65.5 -196h-22q-113 325 -116 335q-28 -80 -50.5 -145t-33.5 -96.5t-18.5 -53.5t-10 -29.5l-3.5 -10.5h-21l-127 380h-89v29h204v-29h-85l108 -322z " />
<glyph unicode="x" horiz-adv-x="595" d="M545 29v-29h-204v29h76q-23 29 -63 79.5t-57 72.5l-120 -152h77v-29h-204v29h91l138 175l-138 176h-91v29h204v-29h-77q21 -28 60.5 -77t59.5 -75l120 152h-76v29h204v-29h-91l-138 -176l138 -175h91z" />
<glyph unicode="y" horiz-adv-x="645" d="M391 380v29h204v-29h-91q-45 -92 -132 -268t-132 -268h82v-29h-204v29h92l95 195l-165 341h-90v29h204v-29h-82l149 -308q127 255 153 308h-83z" />
<glyph unicode="z" horiz-adv-x="397" d="M88 281h-29v128h281v-22l-251 -358h230v99h28v-128h-297v22l250 358h-212v-99z" />
<glyph unicode="{" horiz-adv-x="305" d="M255 -89v-28h-57q-26 0 -43 17t-17 43v213q0 32 -26 55t-62 23v28h13q31 2 53 24t22 53v213q0 26 17.5 43.5t42.5 17.5h57v-29h-57q-13 0 -22 -9.5t-9 -22.5v-213q0 -59 -53 -91q53 -29 53 -92v-213q0 -13 9 -22.5t22 -9.5h57z" />
<glyph unicode="|" horiz-adv-x="129" d="M50 686h29v-686h-29v686z" />
<glyph unicode="}" horiz-adv-x="305" d="M50 -117v28h56q13 0 22 9.5t9 22.5v213q0 63 53 92q-53 32 -53 91v213q0 13 -9 22.5t-22 9.5h-56v29h56q25 0 42.5 -17.5t17.5 -43.5v-213q0 -31 22 -53t53 -24h14v-28q-37 0 -63 -23t-26 -55v-213q0 -26 -17 -43t-43 -17h-56z" />
<glyph unicode="~" horiz-adv-x="585" d="M77 172l-27 10q19 46 57.5 73.5t85.5 27.5q64 0 110 -46q37 -37 88 -37q39 0 70 22.5t47 59.5l27 -9q-19 -45 -57.5 -73t-86.5 -28q-66 0 -109 45q-38 38 -89 38q-38 0 -69.5 -23t-46.5 -60z" />
<glyph unicode="&#xa1;" horiz-adv-x="138" d="M83 -207h-29v600h29v-600zM50 474q0 19 19 19t19 -19t-19 -19t-19 19z" />
<glyph unicode="&#xa2;" horiz-adv-x="454" d="M212 484h28v-75h4q70 0 130 -55v51h28v-100h-24q-59 75 -134 75h-4v-351h4q40 0 77 21.5t62 58.5l21 -19q-29 -42 -71 -66t-89 -24h-4v-75h-28v77q-69 14 -115.5 71t-46.5 131q0 75 46.5 132.5t115.5 69.5v78zM79 204q0 -64 37.5 -112t95.5 -61v346q-58 -12 -95.5 -60.5 t-37.5 -112.5z" />
<glyph unicode="&#xa3;" horiz-adv-x="629" d="M50 336v28h99l-6 8q-22 30 -33 47t-21 42t-10 48q0 67 50 120t123 53q87 0 156 -74v69h29v-156h-29v41q-24 40 -67 65.5t-89 25.5q-60 0 -102 -44t-42 -100q0 -41 58 -120l17 -25h249v-28h-231q42 -71 42 -122q0 -61 -24.5 -111.5t-66.5 -78.5h145q63 0 109.5 52.5 t46.5 128.5h126v-29h-98q-5 -77 -59 -129t-125 -52h-247v29q73 0 118.5 55t45.5 135q0 54 -45 122h-119z" />
<glyph unicode="&#xa5;" horiz-adv-x="727" d="M157 196v29h189v102h-189v29h176q-33 52 -97 151t-96 151h-90v28h204v-28h-80l187 -294l192 294h-80v28h204v-28h-91l-198 -302h181v-29h-194v-102h194v-29h-194v-167h88v-29h-204v29h87v167h-189z" />
<glyph unicode="&#xa6;" horiz-adv-x="129" d="M50 685h29v-275h-29v275zM50 276h29v-276h-29v276z" />
<glyph unicode="&#xa7;" horiz-adv-x="348" d="M50 519q0 40 34 67t84 27q48 0 80 -21v21h29v-104h-29v48q-32 27 -80 27q-37 0 -63 -18.5t-26 -46.5q0 -43 54 -70l87 -44q29 -15 41.5 -23t24.5 -26t12 -43q0 -35 -23.5 -64.5t-64.5 -39.5l10 -5q29 -15 41.5 -23t24.5 -26t12 -43q0 -43 -37 -76t-93 -33q-51 0 -89 35 v-35h-29v105h29q0 -31 28.5 -54t60.5 -23q43 0 72 25t29 56q0 24 -15 37.5t-46 29.5l-86 44q-72 36 -72 94q0 36 27 62t70 32l-25 13q-72 36 -72 95zM163 233h5q43 0 72 24.5t29 55.5q0 33 -38 54q-28 16 -63 16q-37 0 -63 -19t-26 -47q0 -40 54 -69q4 -2 14 -7.5t16 -7.5z " />
<glyph unicode="&#xa8;" horiz-adv-x="236" d="M50 682q0 19 19 19t19 -19t-19 -19t-19 19zM148 682q0 19 19 19t19 -19t-19 -19t-19 19z" />
<glyph unicode="&#xa9;" horiz-adv-x="598" d="M390 268l21 -21q-52 -54 -112 -54t-101.5 44.5t-41.5 108.5q0 63 41.5 105.5t101.5 42.5q45 0 81 -25v20h28v-65h-23q-38 41 -86 41t-81.5 -34t-33.5 -85q0 -52 34 -88t81 -36q45 0 91 46zM50 346q0 109 73.5 186.5t175.5 77.5t175.5 -77.5t73.5 -186.5t-73.5 -185.5 t-175.5 -76.5t-175.5 76.5t-73.5 185.5zM79 346q0 -97 64.5 -165.5t155.5 -68.5t155.5 68.5t64.5 165.5t-64.5 166.5t-155.5 69.5t-155.5 -69.5t-64.5 -166.5z" />
<glyph unicode="&#xaa;" horiz-adv-x="367" d="M50 428q0 40 30.5 67t74.5 27q46 0 77 -29v23q0 28 -20 48.5t-49 20.5q-48 0 -74 -60l-27 10q32 79 101 79q40 0 69 -29t29 -69v-154h56v-28h-85v28q-30 -28 -77 -28q-44 0 -74.5 27.5t-30.5 66.5zM79 428q0 -27 22.5 -46.5t53.5 -19.5t53.5 18.5t23.5 44.5v6 q-1 26 -23.5 44.5t-53.5 18.5t-53.5 -19.5t-22.5 -46.5z" />
<glyph unicode="&#xab;" horiz-adv-x="461" d="M283 76l-18 -22l-215 204l215 204l18 -21l-193 -184zM411 76l-18 -22l-216 204l216 204l17 -21l-193 -184z" />
<glyph unicode="&#xac;" horiz-adv-x="833" />
<glyph unicode="&#xae;" horiz-adv-x="598" d="M50 346q0 109 73.5 186.5t175.5 77.5t175.5 -77.5t73.5 -186.5t-73.5 -185.5t-175.5 -76.5t-175.5 76.5t-73.5 185.5zM79 346q0 -97 64.5 -165.5t155.5 -68.5t155.5 68.5t64.5 165.5t-64.5 166.5t-155.5 69.5t-155.5 -69.5t-64.5 -166.5zM198 199v29h33v243h-33v29h105 q31 0 53.5 -23t22.5 -54q0 -29 -17 -51t-43 -28l69 -116h34v-29h-95v29h26q-44 76 -67 114h-26v-114h33v-29h-95zM260 371h43q20 0 33.5 15t13.5 37q0 20 -14 34t-33 14h-43v-100z" />
<glyph unicode="&#xaf;" horiz-adv-x="403" d="M50 672v28h303v-28h-303z" />
<glyph unicode="&#xb0;" horiz-adv-x="361" d="M50 484q0 55 37.5 93t92.5 38t93 -38t38 -93q0 -54 -38 -91.5t-93 -37.5t-92.5 37.5t-37.5 91.5zM79 484q0 -41 30 -71t71 -30q42 0 72 30t30 71q0 43 -30 72.5t-72 29.5t-71.5 -30t-29.5 -72z" />
<glyph unicode="&#xb1;" horiz-adv-x="474" d="M251 116h-29v174h-172v28h172v173h29v-173h173v-28h-173v-174zM424 0h-374v29h374v-29z" />
<glyph unicode="&#xb2;" horiz-adv-x="275" d="M84 605l-29 11q9 30 31 50t48 20q31 0 53.5 -22.5t22.5 -53.5q0 -42 -27 -61q42 -26 42 -77q0 -39 -26 -65t-65 -26q-25 0 -49 17.5t-35 43.5l28 10q6 -17 22.5 -29.5t33.5 -12.5q26 0 44 18t18 44t-18 44t-44 18h-33v28h33q20 0 34 13.5t14 34.5q0 20 -14 34t-34 14 q-15 0 -29 -15t-21 -38z" />
<glyph unicode="&#xb3;" horiz-adv-x="275" d="M84 605l-29 11q9 30 31 50t48 20q31 0 53.5 -22.5t22.5 -53.5q0 -42 -27 -61q42 -26 42 -77q0 -39 -26 -65t-65 -26q-25 0 -49 17.5t-35 43.5l28 10q6 -17 22.5 -29.5t33.5 -12.5q26 0 44 18t18 44t-18 44t-44 18h-33v28h33q20 0 34 13.5t14 34.5q0 20 -14 34t-34 14 q-15 0 -29 -15t-21 -38z" />
<glyph unicode="&#xb4;" horiz-adv-x="244" d="M140 700h54l-105 -96h-39z" />
<glyph unicode="&#xb6;" horiz-adv-x="582" d="M366 -159h-28v434h-113q-76 0 -125.5 50t-49.5 125q0 67 48.5 116t115.5 49h318v-29h-78v-745h-28v745h-60v-745z" />
<glyph unicode="&#xb7;" horiz-adv-x="138" d="M50 306q0 19 19 19t19 -19t-19 -19t-19 19z" />
<glyph unicode="&#xb8;" horiz-adv-x="268" d="M50 -97h29q0 -27 16 -46t39 -19t39 16t16 39t-16.5 39.5t-39.5 16.5h-25l57 88l20 -18l-28 -46q26 -9 43.5 -30.5t17.5 -49.5q0 -35 -24 -59.5t-60 -24.5t-60 27t-24 67z" />
<glyph unicode="&#xb9;" horiz-adv-x="208" d="M158 405v-28h-100v28h33v237l-21 -15l-20 21l70 44v-287h38z" />
<glyph unicode="&#xba;" horiz-adv-x="365" d="M50 474q0 59 38.5 99.5t94.5 40.5q54 0 93 -41t39 -99t-39 -99t-93 -41q-56 0 -94.5 40.5t-38.5 99.5zM79 474q0 -46 30.5 -79t73.5 -33t73.5 33t30.5 79t-30.5 78.5t-73.5 32.5t-73.5 -32.5t-30.5 -78.5z" />
<glyph unicode="&#xbb;" horiz-adv-x="464" d="M197 53l-19 22q174 162 196 183l-195 183l19 21l216 -204zM70 53l-20 22q174 162 196 183l-194 183l19 21l215 -204z" />
<glyph unicode="&#xbc;" horiz-adv-x="527" d="M412 686h30l-304 -686h-30zM477 114v-28h-39v-57h39v-29h-101v29h34v57h-103l98 218l27 -9l-80 -181h58v77h28v-77h39zM158 405v-28h-100v28h33v237l-22 -15l-19 21l70 44v-287h38z" />
<glyph unicode="&#xbd;" horiz-adv-x="547" d="M411 686h30l-304 -686h-30zM157 405v-28h-100v28h34v237l-22 -15l-19 21l69 44v-287h38zM371 179l-26 -12q-15 28 -15 52q0 35 26 60.5t60 25.5t57.5 -25.5t23.5 -60.5q0 -27 -22 -56q-50 -58 -80.5 -93t-35.5 -41h109v38h29v-67h-199l154 180q16 21 16 39q0 23 -15 40 t-37 17q-23 0 -40 -17t-17 -40q0 -18 12 -40z" />
<glyph unicode="&#xbe;" horiz-adv-x="554" d="M440 686h30l-304 -686h-31zM504 114v-28h-38v-57h38v-29h-100v29h34v57h-103l98 218l27 -9l-80 -181h58v77h28v-77h38zM83 605l-29 11q10 30 31.5 50t48.5 20q31 0 53.5 -22.5t22.5 -53.5q0 -41 -28 -61q42 -25 42 -77q0 -39 -26 -65t-64 -26q-26 0 -49.5 17.5 t-34.5 43.5l27 10q7 -17 23.5 -29.5t33.5 -12.5q26 0 44 18t18 44t-18 44t-44 18h-34v28h34q20 0 33.5 13.5t13.5 34.5q0 19 -14 33.5t-33 14.5q-15 0 -29 -15t-22 -38z" />
<glyph unicode="&#xbf;" horiz-adv-x="484" d="M323 209v182h29v-225q-55 22 -90 22q-76 0 -130 -54t-54 -130t54 -130t130 -54q89 0 151 78l21 -19q-70 -88 -172 -88q-88 0 -150 62t-62 151q0 88 62 150t150 62q39 0 61 -7zM357 459q0 -19 -19 -19t-19 19t19 19t19 -19z" />
<glyph unicode="&#xc0;" horiz-adv-x="832" d="M405 700h19l282 -671h76v-29h-214v29h106q-12 28 -38.5 90.5t-40.5 96.5h-352q-13 -33 -76 -187h97v-29h-214v29h85q29 73 124.5 308.5t145.5 362.5zM415 645l-160 -400h328q-33 79 -90 214.5t-78 185.5zM341 847h56l91 -98h-40z" />
<glyph unicode="&#xc1;" horiz-adv-x="832" d="M405 700h19l282 -671h76v-29h-214v29h106q-12 28 -38.5 90.5t-40.5 96.5h-352q-13 -33 -76 -187h97v-29h-214v29h85q29 73 124.5 308.5t145.5 362.5zM415 645l-160 -400h328q-33 79 -90 214.5t-78 185.5zM435 848h55l-107 -98h-40z" />
<glyph unicode="&#xc2;" horiz-adv-x="832" d="M405 700h19l282 -671h76v-29h-214v29h106q-12 28 -38.5 90.5t-40.5 96.5h-352q-13 -33 -76 -187h97v-29h-214v29h85q29 73 124.5 308.5t145.5 362.5zM415 645l-160 -400h328q-33 79 -90 214.5t-78 185.5zM341 749h-44l118 101l119 -100h-44l-75 61q-9 -8 -74 -62z" />
<glyph unicode="&#xc3;" horiz-adv-x="832" d="M405 700h19l282 -671h76v-29h-214v29h106q-12 28 -38.5 90.5t-40.5 96.5h-352q-13 -33 -76 -187h97v-29h-214v29h85q29 73 124.5 308.5t145.5 362.5zM415 645l-160 -400h328q-33 79 -90 214.5t-78 185.5zM310 747l-27 11q24 57 75 57q33 0 55 -24q22 -18 46 -18 q19 0 35.5 12.5t24.5 32.5l28 -10q-26 -64 -88 -64q-41 0 -62 21t-39 21q-31 0 -48 -39z" />
<glyph unicode="&#xc4;" horiz-adv-x="832" d="M405 700h19l282 -671h76v-29h-214v29h106q-12 28 -38.5 90.5t-40.5 96.5h-352q-13 -33 -76 -187h97v-29h-214v29h85q29 73 124.5 308.5t145.5 362.5zM415 645l-160 -400h328q-33 79 -90 214.5t-78 185.5zM346 769q0 19 20 19q19 0 19 -19q0 -20 -19 -20q-20 0 -20 20z M446 769q0 19 20 19q19 0 19 -19q0 -20 -19 -20q-20 0 -20 20z" />
<glyph unicode="&#xc5;" horiz-adv-x="832" d="M405 700h19l282 -671h76v-29h-214v29h106q-12 28 -38.5 90.5t-40.5 96.5h-352q-13 -33 -76 -187h97v-29h-214v29h85q29 73 124.5 308.5t145.5 362.5zM415 645l-160 -400h328q-33 79 -90 214.5t-78 185.5zM330 820q0 36 24.5 60.5t60.5 24.5q37 0 61.5 -24.5t24.5 -60.5 q0 -37 -24.5 -61.5t-61.5 -24.5q-36 0 -60.5 24.5t-24.5 61.5zM359 820q0 -23 16.5 -40t39.5 -17t40 17t17 40t-17 39.5t-40 16.5t-39.5 -16.5t-16.5 -39.5z" />
<glyph unicode="&#xc6;" horiz-adv-x="786" d="M677 287h-29v66h-218v-324h277v101h29v-130h-424v29h89v187h-157q-13 -33 -38 -93.5t-38 -93.5h96v-29h-214v29h86l259 642h-83v29h389v-130h-29v101h-242v-289h218v66h29v-161zM254 245h147v362q-26 -65 -75 -185t-72 -177z" />
<glyph unicode="&#xc7;" horiz-adv-x="685" d="M255 -99h29q0 -28 16.5 -47t39.5 -19t40 16.5t17 39.5q0 22 -17.5 39t-40.5 17h-25l34 54q-128 13 -213 114t-85 241q0 146 96 245t236 99q127 0 221 -86v86h29v-133h-23q-98 104 -227 104q-127 0 -215 -91t-88 -224q0 -135 88.5 -231t214.5 -96q121 0 232 109l21 -21 q-117 -117 -256 -117q-2 -3 -7 -12.5t-8 -14.5q27 -9 44.5 -31.5t17.5 -50.5q0 -37 -24.5 -61t-61.5 -24q-36 0 -60.5 27.5t-24.5 67.5z" />
<glyph unicode="&#xc8;" horiz-adv-x="524" d="M416 287h-29v66h-218v-324h276v101h29v-130h-424v29h90v642h-90v29h389v-130h-29v101h-241v-289h218v66h29v-161zM189 848h55l91 -98h-40z" />
<glyph unicode="&#xc9;" horiz-adv-x="524" d="M416 287h-29v66h-218v-324h276v101h29v-130h-424v29h90v642h-90v29h389v-130h-29v101h-241v-289h218v66h29v-161zM282 847h55l-107 -98h-40z" />
<glyph unicode="&#xca;" horiz-adv-x="524" d="M416 287h-29v66h-218v-324h276v101h29v-130h-424v29h90v642h-90v29h389v-130h-29v101h-241v-289h218v66h29v-161zM189 750h-45l118 101l119 -100h-44l-75 61z" />
<glyph unicode="&#xcb;" horiz-adv-x="524" d="M416 287h-29v66h-218v-324h276v101h29v-130h-424v29h90v642h-90v29h389v-130h-29v101h-241v-289h218v66h29v-161zM193 769q0 19 20 19q19 0 19 -19q0 -20 -19 -20q-20 0 -20 20zM294 769q0 19 19 19t19 -19q0 -20 -19 -20t-19 20z" />
<glyph unicode="&#xcc;" horiz-adv-x="308" d="M50 0v29h89v642h-89v29h208v-29h-89v-642h89v-29h-208zM80 848h55l92 -98h-40z" />
<glyph unicode="&#xcd;" horiz-adv-x="308" d="M50 0v29h89v642h-89v29h208v-29h-89v-642h89v-29h-208zM173 848h56l-107 -98h-40z" />
<glyph unicode="&#xce;" horiz-adv-x="338" d="M65 0v29h89v642h-89v29h208v-29h-89v-642h89v-29h-208zM95 749h-45l119 101l119 -100h-44l-75 61q-11 -10 -37 -31t-37 -31z" />
<glyph unicode="&#xcf;" horiz-adv-x="308" d="M50 0v29h89v642h-89v29h208v-29h-89v-642h89v-29h-208zM85 770q0 19 19 19q20 0 20 -19q0 -20 -20 -20q-19 0 -19 20zM185 770q0 19 20 19q19 0 19 -19q0 -20 -19 -20q-20 0 -20 20z" />
<glyph unicode="&#xd0;" horiz-adv-x="677" d="M50 353v29h89v289h-89v29h245q139 0 235.5 -99t96.5 -245q0 -149 -96.5 -252.5t-235.5 -103.5h-245v29h89v324h-89zM168 29h127q126 0 214.5 96t88.5 231q0 133 -88 224t-215 91h-127v-289h144v-29h-144v-324z" />
<glyph unicode="&#xd1;" horiz-adv-x="860" d="M50 0v29h89v642h-89v29h111l531 -648v619h-90v29h208v-29h-89v-671h-25l-528 645v-616h90v-29h-208zM317 751l-27 11q24 57 75 57q33 0 55 -24q22 -18 46 -18q19 0 35.5 12.5t24.5 32.5l28 -10q-26 -64 -88 -64q-41 0 -62 21t-39 21q-31 0 -48 -39z" />
<glyph unicode="&#xd2;" horiz-adv-x="764" d="M79 356q0 -135 89 -231t215 -96q125 0 213.5 96t88.5 231q0 133 -88 224t-214 91q-127 0 -215.5 -90.5t-88.5 -224.5zM50 356q0 146 96.5 245t236.5 99q139 0 235 -99t96 -245q0 -148 -96.5 -252t-234.5 -104q-139 0 -236 103.5t-97 252.5zM308 848h55l92 -98h-40z" />
<glyph unicode="&#xd3;" horiz-adv-x="764" d="M79 356q0 -135 89 -231t215 -96q125 0 213.5 96t88.5 231q0 133 -88 224t-214 91q-127 0 -215.5 -90.5t-88.5 -224.5zM50 356q0 146 96.5 245t236.5 99q139 0 235 -99t96 -245q0 -148 -96.5 -252t-234.5 -104q-139 0 -236 103.5t-97 252.5zM401 848h56l-107 -98h-40z" />
<glyph unicode="&#xd4;" horiz-adv-x="764" d="M79 356q0 -135 89 -231t215 -96q125 0 213.5 96t88.5 231q0 133 -88 224t-214 91q-127 0 -215.5 -90.5t-88.5 -224.5zM50 356q0 146 96.5 245t236.5 99q139 0 235 -99t96 -245q0 -148 -96.5 -252t-234.5 -104q-139 0 -236 103.5t-97 252.5zM308 749h-45l119 101l118 -100 h-43l-75 61q-65 -54 -74 -62z" />
<glyph unicode="&#xd5;" horiz-adv-x="764" d="M79 356q0 -135 89 -231t215 -96q125 0 213.5 96t88.5 231q0 133 -88 224t-214 91q-127 0 -215.5 -90.5t-88.5 -224.5zM50 356q0 146 96.5 245t236.5 99q139 0 235 -99t96 -245q0 -148 -96.5 -252t-234.5 -104q-139 0 -236 103.5t-97 252.5zM277 749l-28 11q24 57 75 57 q32 0 56 -24q20 -18 45 -18q42 0 61 45l28 -10q-28 -64 -89 -64q-39 0 -62 21q-19 21 -39 21q-32 0 -47 -39z" />
<glyph unicode="&#xd6;" horiz-adv-x="764" d="M79 356q0 -135 89 -231t215 -96q125 0 213.5 96t88.5 231q0 133 -88 224t-214 91q-127 0 -215.5 -90.5t-88.5 -224.5zM50 356q0 146 96.5 245t236.5 99q139 0 235 -99t96 -245q0 -148 -96.5 -252t-234.5 -104q-139 0 -236 103.5t-97 252.5zM313 770q0 19 19 19 q20 0 20 -19q0 -20 -20 -20q-19 0 -19 20zM413 770q0 19 19 19q20 0 20 -19q0 -20 -20 -20q-19 0 -19 20z" />
<glyph unicode="&#xd7;" horiz-adv-x="386" d="M336 180l-22 -19l-122 122l-122 -122l-20 21l122 121l-122 122l20 21l122 -122l122 122l21 -20l-123 -123q94 -94 124 -123z" />
<glyph unicode="&#xd8;" horiz-adv-x="764" d="M522 700h31l-17 -39q80 -43 129 -124.5t49 -180.5q0 -148 -96.5 -252t-234.5 -104q-71 0 -129 26l-10 -26h-32l16 39q-82 45 -130 129t-48 188q0 146 96.5 245t236.5 99q68 0 127 -25zM383 29q125 0 213.5 96t88.5 231q0 88 -44.5 163.5t-115.5 116.5l-259 -583 q58 -24 117 -24zM79 356q0 -92 44 -169.5t117 -120.5l258 581q-54 24 -115 24q-127 0 -215.5 -90.5t-88.5 -224.5z" />
<glyph unicode="&#xd9;" horiz-adv-x="767" d="M717 700v-29h-89v-421q0 -104 -73 -177t-177 -73q-102 0 -170 72.5t-68 177.5v421h-90v29h208v-29h-89v-421q0 -93 59.5 -157t149.5 -64q91 0 156 65t65 156v421h-90v29h208zM309 848h55l92 -98h-40z" />
<glyph unicode="&#xda;" horiz-adv-x="767" d="M717 700v-29h-89v-421q0 -104 -73 -177t-177 -73q-102 0 -170 72.5t-68 177.5v421h-90v29h208v-29h-89v-421q0 -93 59.5 -157t149.5 -64q91 0 156 65t65 156v421h-90v29h208zM402 848h56l-107 -98h-40z" />
<glyph unicode="&#xdb;" horiz-adv-x="767" d="M717 700v-29h-89v-421q0 -104 -73 -177t-177 -73q-102 0 -170 72.5t-68 177.5v421h-90v29h208v-29h-89v-421q0 -93 59.5 -157t149.5 -64q91 0 156 65t65 156v421h-90v29h208zM310 749h-45l119 101l118 -100h-43l-75 61q-65 -54 -74 -62z" />
<glyph unicode="&#xdc;" horiz-adv-x="767" d="M717 700v-29h-89v-421q0 -104 -73 -177t-177 -73q-102 0 -170 72.5t-68 177.5v421h-90v29h208v-29h-89v-421q0 -93 59.5 -157t149.5 -64q91 0 156 65t65 156v421h-90v29h208zM314 769q0 19 19 19q20 0 20 -19q0 -20 -20 -20q-19 0 -19 20zM414 769q0 19 19 19 q20 0 20 -19q0 -20 -20 -20q-19 0 -19 20z" />
<glyph unicode="&#xdd;" horiz-adv-x="740" d="M142 671h-92v29h208v-29h-82l191 -300l196 300h-81v29h208v-29h-94l-214 -330v-312h89v-29h-208v29h89v313zM418 848h55l-107 -98h-40z" />
<glyph unicode="&#xde;" horiz-adv-x="584" d="M169 0v-161h-119v29h89v681h-89v29h119v-161h168q81 0 139 -60.5t58 -147.5t-58 -148t-139 -61h-168zM169 388v-359h168q69 0 118.5 53t49.5 127t-49.5 126.5t-118.5 52.5h-168z" />
<glyph unicode="&#xdf;" horiz-adv-x="527" d="M270 0v29h21q63 0 110.5 47.5t47.5 110.5q0 64 -47.5 111.5t-110.5 47.5h-21v0v1v1v1v1v1v1v2v1v1v1v2v1v2v1v2v1v9q67 0 111.5 42t44.5 104q0 56 -42.5 96.5t-104.5 40.5q-46 0 -79 -34t-33 -82v-542h-117v29h88v513q0 61 41 102.5t100 41.5q75 0 125.5 -48.5 t50.5 -116.5q0 -53 -27.5 -95t-72.5 -64q53 -20 87.5 -69t34.5 -106q0 -75 -55.5 -131t-130.5 -56h-21z" />
<glyph unicode="&#xe0;" horiz-adv-x="496" d="M50 135q0 57 45 96.5t108 39.5q79 0 126 -57v54q0 46 -32.5 79t-79.5 33q-38 0 -69.5 -24t-47.5 -67l-27 9q20 53 57.5 82t86.5 29q59 0 100 -41.5t41 -99.5v-239h88v-29h-117v56q-44 -56 -126 -56q-63 0 -108 39.5t-45 95.5zM78 135q0 -44 37 -75t88 -31q50 0 87 29.5 t39 72.5v9q-2 42 -39 72t-87 30q-51 0 -88 -31.5t-37 -75.5zM175 554h54l90 -96h-39z" />
<glyph unicode="&#xe1;" horiz-adv-x="496" d="M50 135q0 57 45 96.5t108 39.5q79 0 126 -57v54q0 46 -32.5 79t-79.5 33q-38 0 -69.5 -24t-47.5 -67l-27 9q20 53 57.5 82t86.5 29q59 0 100 -41.5t41 -99.5v-239h88v-29h-117v56q-44 -56 -126 -56q-63 0 -108 39.5t-45 95.5zM78 135q0 -44 37 -75t88 -31q50 0 87 29.5 t39 72.5v9q-2 42 -39 72t-87 30q-51 0 -88 -31.5t-37 -75.5zM266 554h55l-105 -96h-39z" />
<glyph unicode="&#xe2;" horiz-adv-x="496" d="M50 135q0 57 45 96.5t108 39.5q79 0 126 -57v54q0 46 -32.5 79t-79.5 33q-38 0 -69.5 -24t-47.5 -67l-27 9q20 53 57.5 82t86.5 29q59 0 100 -41.5t41 -99.5v-239h88v-29h-117v56q-44 -56 -126 -56q-63 0 -108 39.5t-45 95.5zM78 135q0 -44 37 -75t88 -31q50 0 87 29.5 t39 72.5v9q-2 42 -39 72t-87 30q-51 0 -88 -31.5t-37 -75.5zM175 458h-44l116 99l117 -98h-43l-74 60z" />
<glyph unicode="&#xe3;" horiz-adv-x="496" d="M50 135q0 57 45 96.5t108 39.5q79 0 126 -57v54q0 46 -32.5 79t-79.5 33q-38 0 -69.5 -24t-47.5 -67l-27 9q20 53 57.5 82t86.5 29q59 0 100 -41.5t41 -99.5v-239h88v-29h-117v56q-44 -56 -126 -56q-63 0 -108 39.5t-45 95.5zM78 135q0 -44 37 -75t88 -31q50 0 87 29.5 t39 72.5v9q-2 42 -39 72t-87 30q-51 0 -88 -31.5t-37 -75.5zM137 460l-27 11q23 56 73 56q33 0 55 -24q21 -17 45 -17q40 0 59 44l27 -9q-26 -63 -86 -63q-41 0 -61 20q-21 21 -39 21q-31 0 -46 -39z" />
<glyph unicode="&#xe4;" horiz-adv-x="496" d="M50 135q0 57 45 96.5t108 39.5q79 0 126 -57v54q0 46 -32.5 79t-79.5 33q-38 0 -69.5 -24t-47.5 -67l-27 9q20 53 57.5 82t86.5 29q59 0 100 -41.5t41 -99.5v-239h88v-29h-117v56q-44 -56 -126 -56q-63 0 -108 39.5t-45 95.5zM78 135q0 -44 37 -75t88 -31q50 0 87 29.5 t39 72.5v9q-2 42 -39 72t-87 30q-51 0 -88 -31.5t-37 -75.5zM180 476q0 19 19 19t19 -19t-19 -19t-19 19zM278 476q0 19 19 19t19 -19t-19 -19t-19 19z" />
<glyph unicode="&#xe5;" horiz-adv-x="496" d="M50 135q0 57 45 96.5t108 39.5q79 0 126 -57v54q0 46 -32.5 79t-79.5 33q-38 0 -69.5 -24t-47.5 -67l-27 9q20 53 57.5 82t86.5 29q59 0 100 -41.5t41 -99.5v-239h88v-29h-117v56q-44 -56 -126 -56q-63 0 -108 39.5t-45 95.5zM78 135q0 -44 37 -75t88 -31q50 0 87 29.5 t39 72.5v9q-2 42 -39 72t-87 30q-51 0 -88 -31.5t-37 -75.5zM163 529q0 35 24.5 59.5t59.5 24.5q36 0 60 -24.5t24 -59.5q0 -36 -24 -60t-60 -24q-35 0 -59.5 24t-24.5 60zM192 529q0 -23 16 -39.5t39 -16.5t39.5 16.5t16.5 39.5t-16.5 39t-39.5 16t-39 -16t-16 -39z" />
<glyph unicode="&#xe6;" horiz-adv-x="767" d="M661 108l22 -18q-29 -42 -71 -66t-89 -24q-34 0 -77 16v-16h-116v56q-46 -56 -126 -56q-63 0 -108.5 39.5t-45.5 95.5q0 57 45.5 96.5t108.5 39.5q77 0 126 -57v54q0 46 -33 79t-80 33q-38 0 -69 -24t-47 -67l-28 9q21 53 58.5 82t85.5 29q49 0 86.5 -29t49.5 -75 q27 45 73 74.5t97 29.5q80 0 137 -64t57 -155h-359q5 -68 52 -114.5t113 -46.5q85 0 138 79zM358 95v-66h65q-40 24 -65 66zM79 135q0 -44 36.5 -75t88.5 -31q50 0 87 29.5t39 72.5v9q-2 42 -39 72t-87 30q-52 0 -88.5 -31.5t-36.5 -75.5zM358 218h330q-5 68 -53 115 t-112 47q-66 0 -113 -47t-52 -115z" />
<glyph unicode="&#xe7;" horiz-adv-x="454" d="M143 -97h28q0 -27 16.5 -46t39.5 -19t39 16t16 39t-17 39.5t-39 16.5h-25l31 51q-77 5 -129.5 63.5t-52.5 140.5q0 85 56.5 145t137.5 60q70 0 130 -55v51h28v-100h-24q-59 75 -134 75q-68 0 -116.5 -51.5t-48.5 -124.5q0 -72 48.5 -123.5t116.5 -51.5q40 0 77 21.5 t62 58.5l21 -19q-57 -78 -137 -89l-18 -28q27 -8 44.5 -29.5t17.5 -50.5q0 -35 -24.5 -59.5t-59.5 -24.5q-36 0 -60 27t-24 67z" />
<glyph unicode="&#xe8;" d="M382 108l22 -18q-64 -90 -161 -90q-80 0 -136.5 59.5t-56.5 144.5t56.5 145t136.5 60t137 -64t57 -155h-359q4 -68 52 -114.5t113 -46.5q84 0 139 79zM78 218h330q-4 68 -52.5 115t-112.5 47q-65 0 -112.5 -47t-52.5 -115zM171 554h54l90 -96h-39z" />
<glyph unicode="&#xe9;" d="M382 108l22 -18q-64 -90 -161 -90q-80 0 -136.5 59.5t-56.5 144.5t56.5 145t136.5 60t137 -64t57 -155h-359q4 -68 52 -114.5t113 -46.5q84 0 139 79zM78 218h330q-4 68 -52.5 115t-112.5 47q-65 0 -112.5 -47t-52.5 -115zM262 554h55l-105 -96h-39z" />
<glyph unicode="&#xea;" d="M382 108l22 -18q-64 -90 -161 -90q-80 0 -136.5 59.5t-56.5 144.5t56.5 145t136.5 60t137 -64t57 -155h-359q4 -68 52 -114.5t113 -46.5q84 0 139 79zM78 218h330q-4 68 -52.5 115t-112.5 47q-65 0 -112.5 -47t-52.5 -115zM171 458h-44l116 99l117 -98h-43l-74 60z" />
<glyph unicode="&#xeb;" d="M382 108l22 -18q-64 -90 -161 -90q-80 0 -136.5 59.5t-56.5 144.5t56.5 145t136.5 60t137 -64t57 -155h-359q4 -68 52 -114.5t113 -46.5q84 0 139 79zM78 218h330q-4 68 -52.5 115t-112.5 47q-65 0 -112.5 -47t-52.5 -115zM176 476q0 19 19 19t19 -19t-19 -19t-19 19z M274 476q0 19 19 19t19 -19t-19 -19t-19 19z" />
<glyph unicode="&#xec;" horiz-adv-x="304" d="M254 29v-29h-204v29h87v351h-87v29h116v-380h88zM79 554h54l90 -96h-39z" />
<glyph unicode="&#xed;" horiz-adv-x="304" d="M254 29v-29h-204v29h87v351h-87v29h116v-380h88zM171 554h54l-105 -96h-39z" />
<glyph unicode="&#xee;" horiz-adv-x="333" d="M269 29v-29h-204v29h87v351h-87v29h116v-380h88zM94 458h-44l117 99l116 -98h-43l-73 60q-16 -14 -73 -61z" />
<glyph unicode="&#xef;" horiz-adv-x="304" d="M254 29v-29h-204v29h87v351h-87v29h116v-380h88zM84 476q0 19 19 19t19 -19t-19 -19t-19 19zM182 476q0 19 19 19t19 -19t-19 -19t-19 19z" />
<glyph unicode="&#xf0;" horiz-adv-x="525" d="M148 468l-21 21l82 82l-82 100l21 19l82 -98l98 98l21 -21l-101 -101l178 -213q49 -60 49 -136q0 -91 -63.5 -154.5t-154.5 -63.5q-83 0 -145 64t-62 154q0 89 61.5 148t145.5 59q42 0 85 -15q-16 19 -53.5 65.5t-59.5 72.5zM447 219q0 78 -55 128.5t-135 50.5 q-72 0 -125 -51t-53 -128q0 -78 53.5 -133.5t124.5 -55.5q79 0 134.5 55t55.5 134z" />
<glyph unicode="&#xf1;" horiz-adv-x="592" d="M542 29v-29h-204v29h88v216q0 56 -35.5 95.5t-88.5 39.5t-94.5 -40t-41.5 -89v-222h88v-29h-204v29h88v351h-88v29h116v-73q51 73 136 73q66 0 109 -48t43 -116v-216h88zM193 457l-27 11q25 56 74 56q33 0 54 -24q23 -17 45 -17q42 0 59 44l28 -9q-26 -63 -87 -63 q-41 0 -61 20q-21 21 -38 21q-30 0 -47 -39z" />
<glyph unicode="&#xf2;" d="M50 204q0 85 56.5 145t136.5 60t137 -60t57 -145q0 -84 -57 -144t-137 -60t-136.5 59.5t-56.5 144.5zM78 204q0 -72 48.5 -123.5t116.5 -51.5t116.5 51.5t48.5 123.5q0 73 -48.5 124.5t-116.5 51.5t-116.5 -51.5t-48.5 -124.5zM171 555h54l90 -96h-39z" />
<glyph unicode="&#xf3;" d="M50 204q0 85 56.5 145t136.5 60t137 -60t57 -145q0 -84 -57 -144t-137 -60t-136.5 59.5t-56.5 144.5zM78 204q0 -72 48.5 -123.5t116.5 -51.5t116.5 51.5t48.5 123.5q0 73 -48.5 124.5t-116.5 51.5t-116.5 -51.5t-48.5 -124.5zM262 555h55l-105 -96h-39z" />
<glyph unicode="&#xf4;" d="M50 204q0 85 56.5 145t136.5 60t137 -60t57 -145q0 -84 -57 -144t-137 -60t-136.5 59.5t-56.5 144.5zM78 204q0 -72 48.5 -123.5t116.5 -51.5t116.5 51.5t48.5 123.5q0 73 -48.5 124.5t-116.5 51.5t-116.5 -51.5t-48.5 -124.5zM171 458h-44l116 99l117 -98h-43l-74 60z " />
<glyph unicode="&#xf5;" d="M50 204q0 85 56.5 145t136.5 60t137 -60t57 -145q0 -84 -57 -144t-137 -60t-136.5 59.5t-56.5 144.5zM78 204q0 -72 48.5 -123.5t116.5 -51.5t116.5 51.5t48.5 123.5q0 73 -48.5 124.5t-116.5 51.5t-116.5 -51.5t-48.5 -124.5zM140 457l-26 11q23 56 73 56q33 0 54 -24 q23 -17 45 -17q42 0 59 44l28 -9q-26 -63 -87 -63q-39 0 -61 20q-19 21 -38 21q-30 0 -47 -39z" />
<glyph unicode="&#xf6;" d="M50 204q0 85 56.5 145t136.5 60t137 -60t57 -145q0 -84 -57 -144t-137 -60t-136.5 59.5t-56.5 144.5zM78 204q0 -72 48.5 -123.5t116.5 -51.5t116.5 51.5t48.5 123.5q0 73 -48.5 124.5t-116.5 51.5t-116.5 -51.5t-48.5 -124.5zM176 478q0 19 19 19t19 -19t-19 -19t-19 19 zM274 478q0 19 19 19t19 -19t-19 -19t-19 19z" />
<glyph unicode="&#xf7;" horiz-adv-x="513" d="M237 184q0 19 19 19t19 -19t-19 -19t-19 19zM237 418q0 19 19 19t19 -19t-19 -19t-19 19zM50 290v28h413v-28h-413z" />
<glyph unicode="&#xf8;" d="M316 409h32l-12 -26q45 -28 73 -76t28 -103q0 -84 -57 -144t-137 -60q-38 0 -74 14q-3 -4 -5 -14h-31l12 27q-43 27 -69 74t-26 103q0 85 56.5 145t136.5 60q37 0 67 -13zM243 29q68 0 116.5 51.5t48.5 123.5q0 47 -23 88.5t-61 65.5q-28 -63 -77 -172.5t-65 -144.5 q27 -12 61 -12zM78 204q0 -46 21.5 -85.5t57.5 -64.5l142 316q-26 10 -56 10q-68 0 -116.5 -51.5t-48.5 -124.5z" />
<glyph unicode="&#xf9;" horiz-adv-x="592" d="M50 380v29h116v-245q0 -56 35.5 -95.5t88.5 -39.5t94.5 40t41.5 89v222h-88v29h116v-380h88v-29h-116v72q-23 -32 -59.5 -52t-76.5 -20q-66 0 -109 48t-43 116v216h-88zM224 554h54l90 -96h-40z" />
<glyph unicode="&#xfa;" horiz-adv-x="592" d="M50 380v29h116v-245q0 -56 35.5 -95.5t88.5 -39.5t94.5 40t41.5 89v222h-88v29h116v-380h88v-29h-116v72q-23 -32 -59.5 -52t-76.5 -20q-66 0 -109 48t-43 116v216h-88zM315 554h54l-104 -96h-39z" />
<glyph unicode="&#xfb;" horiz-adv-x="592" d="M50 380v29h116v-245q0 -56 35.5 -95.5t88.5 -39.5t94.5 40t41.5 89v222h-88v29h116v-380h88v-29h-116v72q-23 -32 -59.5 -52t-76.5 -20q-66 0 -109 48t-43 116v216h-88zM224 458h-44l116 99l116 -98h-43l-73 60z" />
<glyph unicode="&#xfc;" horiz-adv-x="592" d="M50 380v29h116v-245q0 -56 35.5 -95.5t88.5 -39.5t94.5 40t41.5 89v222h-88v29h116v-380h88v-29h-116v72q-23 -32 -59.5 -52t-76.5 -20q-66 0 -109 48t-43 116v216h-88zM228 478q0 19 19 19t19 -19t-19 -19t-19 19zM327 478q0 19 19 19t19 -19t-19 -19t-19 19z" />
<glyph unicode="&#xfd;" horiz-adv-x="645" d="M391 380v29h204v-29h-91q-45 -92 -132 -268t-132 -268h82v-29h-204v29h92l95 195l-165 341h-90v29h204v-29h-82l149 -308q127 255 153 308h-83zM370 555h54l-104 -96h-40z" />
<glyph unicode="&#xfe;" horiz-adv-x="575" d="M50 539v28h116v-253q27 44 70.5 69.5t94.5 25.5q80 0 137 -60t57 -144q0 -85 -57 -145t-137 -60q-51 0 -94.5 26.5t-70.5 70.5v-255h-116v28h88v669h-88zM331 380q-67 0 -116 -49t-49 -118v-16q2 -68 50.5 -118t114.5 -50q68 0 116.5 51.5t48.5 124.5q0 72 -48.5 123.5 t-116.5 51.5z" />
<glyph unicode="&#xff;" horiz-adv-x="645" d="M391 380v29h204v-29h-91q-45 -92 -132 -268t-132 -268h82v-29h-204v29h92l95 195l-165 341h-90v29h204v-29h-82l149 -308q127 255 153 308h-83zM255 479q0 19 19 19t19 -19t-19 -19t-19 19zM353 479q0 19 19 19t19 -19t-19 -19t-19 19z" />
<glyph unicode="&#x131;" horiz-adv-x="304" d="M254 29v-29h-204v29h87v351h-87v29h116v-380h88zM133 477q0 19 19 19t19 -19t-19 -19t-19 19z" />
<glyph unicode="&#x141;" horiz-adv-x="540" d="M70 240l-20 21l93 93v317h-89v29h208v-29h-90v-288l148 149l20 -22l-168 -168v-313h289v101h29v-130h-436v29h89v284z" />
<glyph unicode="&#x142;" horiz-adv-x="385" d="M70 235l-20 21l91 91v311h-88v28h117v-310l145 145l20 -20l-165 -165v-307h87v-29h-204v29h88v278z" />
<glyph unicode="&#x152;" horiz-adv-x="1070" d="M961 287h-29v66h-218v-324h276v101h30v-130h-424v29h89v179q-39 -94 -120.5 -151t-181.5 -57q-139 0 -236 103.5t-97 252.5q0 146 96.5 245t236.5 99q101 0 182.5 -54t119.5 -145v170h-89v29h389v-130h-30v101h-241v-289h218v66h29v-161zM80 356q0 -135 88.5 -231 t214.5 -96q125 0 213.5 96t88.5 231q0 133 -88 224t-214 91q-127 0 -215 -91t-88 -224z" />
<glyph unicode="&#x153;" horiz-adv-x="846" d="M740 108l22 -18q-29 -42 -71 -66t-89 -24q-61 0 -109 34.5t-70 91.5q-22 -57 -70.5 -91.5t-108.5 -34.5q-81 0 -137.5 59.5t-56.5 144.5t56.5 145t137.5 60q59 0 107.5 -35.5t71.5 -92.5q22 58 70 93t109 35q80 0 137 -64t57 -155h-359q5 -68 52 -114.5t113 -46.5 q85 0 138 79zM79 204q0 -72 48.5 -123.5t116.5 -51.5t116.5 51.5t48.5 123.5v8q-3 69 -51.5 118.5t-113.5 49.5q-68 0 -116.5 -51.5t-48.5 -124.5zM437 218h330q-5 68 -53 115t-112 47q-66 0 -113 -47t-52 -115z" />
<glyph unicode="&#x160;" horiz-adv-x="459" d="M79 4h-29v160h28q9 -59 52 -97.5t99 -38.5q64 0 107.5 43t43.5 107q0 70 -100 129l-140 82q-90 53 -90 142q0 75 49 121.5t118 46.5q83 0 127 -44v39h29v-161h-29v78q-16 28 -50.5 43.5t-76.5 15.5q-57 0 -97.5 -38.5t-40.5 -100.5q0 -75 75 -117l142 -82 q113 -67 113 -154q0 -77 -51.5 -128t-128.5 -51q-47 0 -86.5 20.5t-63.5 57.5v-73zM110 848h45l74 -62l74 62h44l-118 -101z" />
<glyph unicode="&#x161;" horiz-adv-x="348" d="M248 388v21h29v-104h-29v48q-32 27 -80 27q-37 0 -63 -18.5t-26 -46.5q0 -43 54 -70l87 -44q29 -15 41.5 -23t24.5 -26t12 -43q0 -43 -37 -76t-93 -33q-51 0 -89 35v-35h-29v105h29q0 -31 28.5 -53.5t60.5 -22.5q43 0 72 24.5t29 55.5q0 24 -15 37.5t-46 29.5l-86 44 q-72 36 -72 95q0 40 34 67t84 27q48 0 80 -21zM58 553h44l72 -61l72 61h44l-116 -99z" />
<glyph unicode="&#x178;" horiz-adv-x="740" d="M142 671h-92v29h208v-29h-82l191 -300l196 300h-81v29h208v-29h-94l-214 -330v-312h89v-29h-208v29h89v313zM300 769q0 19 19 19q20 0 20 -19q0 -20 -20 -20q-19 0 -19 20zM400 769q0 19 19 19q20 0 20 -19q0 -20 -20 -20q-19 0 -19 20z" />
<glyph unicode="&#x17d;" horiz-adv-x="613" d="M101 572h-30v128h479v-22l-459 -649h443v99h29v-128h-513v22l459 649h-408v-99zM188 848h45l74 -62l74 62h44l-118 -101z" />
<glyph unicode="&#x17e;" horiz-adv-x="397" d="M88 281h-29v128h281v-22l-251 -358h230v99h28v-128h-297v22l250 358h-212v-99zM82 555h44l72 -61l73 61h44l-117 -99z" />
<glyph unicode="&#x192;" horiz-adv-x="304" d="M254 380h-88v-481q0 -42 -32 -74.5t-84 -32.5v29q39 0 63 23.5t24 54.5v481h-87v29h87v171q0 42 32 74t85 32v-28q-40 0 -64 -23.5t-24 -54.5v-171h88v-29z" />
<glyph unicode="&#x2c6;" horiz-adv-x="333" d="M94 601h-44l117 99l116 -98h-43l-73 60q-16 -14 -73 -61z" />
<glyph unicode="&#x2c7;" horiz-adv-x="333" d="M50 700h44l73 -61l72 61h44l-116 -99z" />
<glyph unicode="&#x2d8;" horiz-adv-x="268" d="M189 700h29q0 -39 -24 -66t-60 -27t-60 27t-24 66h29q0 -27 16 -45.5t39 -18.5t39 18.5t16 45.5z" />
<glyph unicode="&#x2d9;" horiz-adv-x="138" d="M50 666q0 19 19 19t19 -19t-19 -19t-19 19z" />
<glyph unicode="&#x2da;" horiz-adv-x="268" d="M50 617q0 35 24 59t60 24t60 -24t24 -59q0 -36 -24 -60t-60 -24t-60 24t-24 60zM79 617q0 -23 16 -39.5t39 -16.5t39 16.5t16 39.5t-16 39t-39 16q-22 0 -38.5 -16t-16.5 -39z" />
<glyph unicode="&#x2db;" horiz-adv-x="268" d="M189 -45h29q0 -39 -24 -66t-60 -27t-60 24t-24 60q0 35 27 59.5t67 24.5v-29q-27 0 -46 -16t-19 -39t16 -39.5t39 -16.5t39 19t16 46z" />
<glyph unicode="&#x2dc;" horiz-adv-x="360" d="M77 634l-27 10q24 56 74 56q33 0 54 -23q22 -18 45 -18q40 0 59 44l28 -9q-28 -63 -87 -63q-41 0 -61 20q-21 21 -38 21q-30 0 -47 -38z" />
<glyph unicode="&#x2dd;" horiz-adv-x="351" d="M247 700h54l-105 -96h-39zM139 700h55l-105 -96h-39z" />
<glyph unicode="&#x394;" horiz-adv-x="833" />
<glyph unicode="&#x3a9;" horiz-adv-x="833" />
<glyph unicode="&#x3bc;" horiz-adv-x="833" />
<glyph unicode="&#x3c0;" horiz-adv-x="294" />
<glyph unicode="&#x2013;" horiz-adv-x="475" d="M50 290v28h375v-28h-375z" />
<glyph unicode="&#x2014;" horiz-adv-x="633" d="M50 290v28h533v-28h-533z" />
<glyph unicode="&#x2018;" horiz-adv-x="140" d="M56 679l21 21h13l-12 -17q10 -7 10 -17q0 -19 -19 -19t-19 19q0 7 6 13z" />
<glyph unicode="&#x2019;" horiz-adv-x="140" d="M84 668l-21 -21h-13l12 17q-10 7 -10 17q0 19 19 19t19 -19q0 -7 -6 -13z" />
<glyph unicode="&#x201a;" horiz-adv-x="140" d="M84 5l-21 -21h-13l12 17q-10 7 -10 17q0 19 19 19t19 -19q0 -7 -6 -13z" />
<glyph unicode="&#x201c;" horiz-adv-x="191" d="M56 679l21 21h13l-12 -17q10 -7 10 -17q0 -19 -19 -19t-19 19q0 7 6 13zM107 679l21 21h13l-12 -17q10 -7 10 -17q0 -19 -19 -19t-19 19q0 7 6 13z" />
<glyph unicode="&#x201d;" horiz-adv-x="191" d="M135 668l-21 -21h-13l12 17q-10 7 -10 17q0 19 19 19t19 -19q0 -7 -6 -13zM84 668l-21 -21h-13l12 17q-10 7 -10 17q0 19 19 19t19 -19q0 -7 -6 -13z" />
<glyph unicode="&#x201e;" horiz-adv-x="191" d="M135 5l-21 -21h-13l12 17q-10 7 -10 17q0 19 19 19t19 -19q0 -7 -6 -13zM84 5l-21 -21h-13l12 17q-10 7 -10 17q0 19 19 19t19 -19q0 -7 -6 -13z" />
<glyph unicode="&#x2020;" horiz-adv-x="358" d="M50 356v28h116v197h28v-197h114v-28h-114v-462h-28v462h-116z" />
<glyph unicode="&#x2021;" horiz-adv-x="358" d="M50 91v28h116v237h-116v28h116v197h28v-197h114v-28h-114v-237h114v-28h-114v-197h-28v197h-116z" />
<glyph unicode="&#x2022;" horiz-adv-x="314" d="M50 308q0 44 31.5 76t74.5 32q44 0 76 -32t32 -76t-32 -75.5t-76 -31.5q-43 0 -74.5 31.5t-31.5 75.5z" />
<glyph unicode="&#x2026;" horiz-adv-x="457" d="M50 19q0 19 19 19q20 0 20 -19t-20 -19q-19 0 -19 19zM210 19q0 19 19 19t19 -19t-19 -19t-19 19zM369 19q0 19 19 19t19 -19t-19 -19t-19 19z" />
<glyph unicode="&#x2030;" horiz-adv-x="990" d="M529 686h34l-417 -686h-33zM50 535q0 63 41.5 107t101.5 44q59 0 101 -44t42 -107t-42 -107t-101 -44q-60 0 -101.5 44t-41.5 107zM78 535q0 -50 34 -86t81 -36t80.5 36t33.5 86q0 51 -33.5 87t-80.5 36t-81 -36t-34 -87zM336 151q0 63 41.5 107t101.5 44q59 0 101 -44 t42 -107t-42 -107t-101 -44q-60 0 -101.5 44t-41.5 107zM364 151q0 -50 34 -86t81 -36t80.5 36t33.5 86t-33.5 86.5t-80.5 36.5t-81 -36.5t-34 -86.5zM654 151q0 63 41.5 107t101.5 44q59 0 101 -44t42 -107t-42 -107t-101 -44q-60 0 -101.5 44t-41.5 107zM683 151 q0 -50 33.5 -86t80.5 -36t81 36t34 86t-34 86.5t-81 36.5t-80.5 -36.5t-33.5 -86.5z" />
<glyph unicode="&#x2039;" horiz-adv-x="334" d="M284 76l-19 -22l-215 204l215 204l19 -21l-194 -184z" />
<glyph unicode="&#x203a;" horiz-adv-x="335" d="M68 53l-18 22q173 162 195 183l-195 183l19 21l216 -204z" />
<glyph unicode="&#x2044;" horiz-adv-x="435" d="M354 686h31l-304 -686h-31z" />
<glyph unicode="&#x20ac;" horiz-adv-x="563" d="M491 96l22 -18q-76 -79 -163 -79q-91 0 -160 76.5t-88 193.5h-52v28h49q-2 32 -2 45q0 30 3 57h-50v29h55q21 112 89 184.5t156 72.5t163 -80l-21 -19q-65 71 -142 71q-75 0 -135 -65t-81 -164h329v-29h-334q-3 -19 -3 -57q0 -27 2 -45h335v-28h-330q17 -107 76.5 -174 t140.5 -67q78 0 141 68z" />
<glyph unicode="&#x2122;" horiz-adv-x="945" d="M621 291h-20l-144 341l-51 -312h53v-29h-132v29h48l59 353h-55v28h80l152 -357q28 67 80.5 192t69.5 165h80v-28h-53q8 -53 17.5 -112t20.5 -129.5t18 -111.5h51v-29h-133v29h53q-9 60 -26 159t-25 153zM314 618h-29v55h-93v-353h57v-29h-134v29h49v353h-85v-55h-29v83 h264v-83z" />
<glyph unicode="&#x2202;" horiz-adv-x="833" />
<glyph unicode="&#x220f;" horiz-adv-x="833" />
<glyph unicode="&#x2211;" horiz-adv-x="833" />
<glyph unicode="&#x2212;" horiz-adv-x="513" d="M50 290v28h413v-28h-413z" />
<glyph unicode="&#x221a;" horiz-adv-x="833" />
<glyph unicode="&#x221e;" horiz-adv-x="833" />
<glyph unicode="&#x222b;" horiz-adv-x="833" />
<glyph unicode="&#x2248;" horiz-adv-x="833" />
<glyph unicode="&#x2260;" horiz-adv-x="513" d="M50 269v28h164q8 19 23 51t23 51h-210v29h223l115 258h30l-114 -258h159v-29h-172q-7 -15 -22 -47.5t-24 -54.5h218v-28h-230q-13 -31 -55 -124.5t-64 -144.5h-31l120 269h-153z" />
<glyph unicode="&#x2264;" horiz-adv-x="461" d="M411 113l-17 -21l-344 215l344 214l9 -20l-301 -193zM57 0v29h350v-29h-350z" />
<glyph unicode="&#x2265;" horiz-adv-x="462" d="M67 92l-9 20q255 167 301 196l-309 193l18 20l344 -214zM404 29v-29h-350v29h350z" />
<glyph unicode="&#x25ca;" horiz-adv-x="833" />
<glyph unicode="&#xe000;" horiz-adv-x="410" d="M0 410h410v-410h-410v410z" />
<glyph unicode="&#xfb01;" horiz-adv-x="489" d="M439 29v-29h-389v29h88v351h-88v29h88v171q0 42 31.5 74t84.5 32v-28q-39 0 -63.5 -23.5t-24.5 -54.5v-171h185v-380h88zM322 29v351h-156v-351h156zM318 477q0 19 19 19t19 -19t-19 -19t-19 19z" />
<glyph unicode="&#xfb02;" horiz-adv-x="489" d="M439 29v-29h-389v29h88v351h-88v29h88v171q0 42 29.5 74t76.5 32h107v-657h88zM254 409v-29h-88v-351h156v629h-78q-35 0 -56.5 -23.5t-21.5 -54.5v-171h88z" />
</font>
</defs>
</svg>
